<svg width="24" height="24" viewBox="0 0 24 24" fill="none" xmlns="http://www.w3.org/2000/svg">
<path d="M22.0452 5H1.95502C0.877009 5 0 5.98226 0 7.18964V16.8104C0 18.0177 0.877009 19 1.95502 19H22.045C23.123 19 24 18.0177 24 16.8104V7.18964C24 5.98226 23.123 5 22.0452 5ZM23.2502 16.8106C23.2502 17.5549 22.7095 18.1603 22.0452 18.1603H1.95502C1.29051 18.1603 0.750008 17.5546 0.750008 16.8106V7.18992C0.750008 6.44567 1.29076 5.8403 1.95502 5.8403H22.045C22.7095 5.8403 23.25 6.44595 23.25 7.18992L23.2502 16.8106Z" fill="white"/>
<path d="M21.5669 7H2.43334C2.19429 7 2 7.21474 2 7.47896V16.521C2 16.7853 2.19429 17 2.43334 17H21.5667C21.8057 17 22 16.7853 22 16.521V7.47896C22 7.21474 21.8057 7 21.5669 7ZM21.2859 16.2108H2.71429V7.78949H21.2859V16.2108Z" fill="white"/>
<path d="M19.6535 9H4.34667C4.15543 9 4 9.12885 4 9.28738V14.7126C4 14.8712 4.15543 15 4.34667 15H19.6533C19.8446 15 20 14.8712 20 14.7126V9.28738C20 9.12885 19.8446 9 19.6535 9ZM19.4288 14.5265H4.57144V9.4737H19.4288V14.5265Z" fill="white"/>
</svg>
