<svg width="24" height="24" viewBox="0 0 24 24" fill="none" xmlns="http://www.w3.org/2000/svg">
<g clip-path="url(#clip0_450_5381)">
<path d="M23.2969 0H0.703125C0.314812 0 0 0.314812 0 0.703125V23.2969C0 23.6852 0.314812 24 0.703125 24H23.2969C23.6852 24 24 23.6852 24 23.2969V0.703125C24 0.314812 23.6852 0 23.2969 0ZM22.5938 22.5938H1.40625V1.40625H22.5938V22.5938Z" fill="white"/>
<path d="M17.3906 19.7112L16.6022 18.9227C16.3276 18.6481 15.8824 18.6481 15.6078 18.9227C15.3332 19.1973 15.3332 19.6425 15.6078 19.9171L17.5965 21.9058C17.8711 22.1804 18.3163 22.1804 18.5909 21.9058L20.5796 19.9171C20.8542 19.6425 20.8542 19.1973 20.5796 18.9227C20.3051 18.6481 19.8598 18.6481 19.5853 18.9227L18.7968 19.7112L18.7969 11.7795C18.7969 11.3912 18.4821 11.0764 18.0938 11.0764C17.7054 11.0764 17.3906 11.3912 17.3906 11.7795L17.3906 19.7112Z" fill="white"/>
<path d="M6.40379 21.9055L8.39253 19.9168C8.6671 19.6422 8.6671 19.197 8.39253 18.9224C8.11795 18.6478 7.67274 18.6478 7.39816 18.9224L6.60972 19.7108L6.60969 11.7792C6.60969 11.3909 6.2949 11.0761 5.90657 11.0761C5.51824 11.0761 5.20345 11.3909 5.20345 11.7792L5.20349 19.7108L4.41505 18.9224C4.14047 18.6478 3.69526 18.6478 3.42068 18.9224C3.1461 19.197 3.1461 19.6422 3.42068 19.9168L5.40942 21.9055C5.684 22.1801 6.12921 22.1801 6.40379 21.9055Z" fill="white"/>
</g>
<defs>
<clipPath id="clip0_450_5381">
<rect width="24" height="24" fill="white"/>
</clipPath>
</defs>
</svg>
