<svg width="24" height="24" viewBox="0 0 24 24" fill="none" xmlns="http://www.w3.org/2000/svg">
<g clip-path="url(#clip0_445_10647)">
<path d="M11.9991 21.6259C11.9176 21.625 11.8374 21.6065 11.7638 21.5717L5.78258 18.8094C5.68084 18.762 5.5947 18.6866 5.53428 18.592C5.47385 18.4974 5.44164 18.3875 5.44141 18.2753V10.7717C5.44136 10.673 5.46619 10.5757 5.51362 10.4891C5.56104 10.4024 5.62952 10.3291 5.71275 10.2759C5.79598 10.2227 5.89127 10.1913 5.98983 10.1846C6.08839 10.1779 6.18705 10.1961 6.2767 10.2376L12.2461 13C12.3479 13.0474 12.434 13.1228 12.4944 13.2174C12.5548 13.312 12.5871 13.4218 12.5873 13.5341V21.0376C12.5876 21.115 12.5726 21.1916 12.5431 21.2631C12.5137 21.3346 12.4704 21.3996 12.4157 21.4543C12.361 21.509 12.296 21.5523 12.2245 21.5817C12.153 21.6112 12.0764 21.6262 11.9991 21.6259ZM6.61788 17.8988L11.4108 20.1176V13.9106L6.61788 11.6917V17.8988Z" fill="white"/>
<path d="M12.0004 21.6259C11.8879 21.626 11.7777 21.5942 11.6827 21.5341C11.5994 21.4809 11.5309 21.4075 11.4836 21.3207C11.4362 21.2339 11.4117 21.1365 11.4121 21.0376V13.5341C11.4134 13.4206 11.4473 13.3098 11.5099 13.2151C11.5725 13.1203 11.6611 13.0457 11.7651 13L17.7227 10.2376C17.8124 10.1961 17.911 10.1779 18.0096 10.1846C18.1081 10.1913 18.2034 10.2227 18.2867 10.2759C18.3699 10.3291 18.4384 10.4024 18.4858 10.4891C18.5332 10.5757 18.558 10.673 18.558 10.7717V18.2753C18.5578 18.3875 18.5255 18.4974 18.4651 18.592C18.4047 18.6866 18.3186 18.762 18.2168 18.8094L12.2474 21.5717C12.1702 21.6082 12.0857 21.6267 12.0004 21.6259ZM12.5886 13.9106V20.1176L17.3815 17.8988V11.6917L12.5886 13.9106Z" fill="white"/>
<path d="M11.9997 14.1176C11.9184 14.1157 11.8383 14.0973 11.7644 14.0635L5.78319 11.3059C5.68115 11.2588 5.59474 11.1835 5.53417 11.0888C5.4736 10.9942 5.44141 10.8841 5.44141 10.7718C5.44141 10.6594 5.4736 10.5494 5.53417 10.4547C5.59474 10.3601 5.68115 10.2847 5.78319 10.2376L11.7644 7.47529C11.8418 7.4393 11.9261 7.42065 12.0114 7.42065C12.0968 7.42065 12.1811 7.4393 12.2585 7.47529L18.2161 10.2376C18.3182 10.2847 18.4046 10.3601 18.4652 10.4547C18.5257 10.5494 18.5579 10.6594 18.5579 10.7718C18.5579 10.8841 18.5257 10.9942 18.4652 11.0888C18.4046 11.1835 18.3182 11.2588 18.2161 11.3059L12.2467 14.0682C12.1688 14.102 12.0846 14.1188 11.9997 14.1176ZM7.43025 10.7718L11.9997 12.8894L16.5691 10.7718L11.9997 8.65647L7.43025 10.7718Z" fill="white"/>
<path d="M19.6185 20.9245L18.8301 20.136C18.5555 19.8615 18.1103 19.8615 17.8357 20.136C17.5612 20.4106 17.5612 20.8558 17.8357 21.1304L19.8245 23.1191C20.099 23.3937 20.5443 23.3937 20.8188 23.1191L22.8076 21.1304C23.0822 20.8558 23.0822 20.4106 22.8076 20.136C22.533 19.8615 22.0878 19.8615 21.8132 20.136L21.0248 20.9245L20.9961 16.9924C20.9961 16.6041 20.6813 16.2893 20.293 16.2893C19.9046 16.2893 19.5899 16.6041 19.5899 16.9924L19.6185 20.9245Z" fill="white"/>
</g>
<defs>
<clipPath id="clip0_445_10647">
<rect width="24" height="24" fill="white"/>
</clipPath>
</defs>
</svg>
