<svg width="24" height="24" viewBox="0 0 24 24" fill="none" xmlns="http://www.w3.org/2000/svg">
<g clip-path="url(#clip0_445_10669)">
<path d="M14.7296 0.749995V3.64574H10.1967V0.749995C10.1967 0.335808 9.86092 -3.8147e-06 9.44669 -3.8147e-06C9.03245 -3.8147e-06 8.69669 0.335808 8.69669 0.749995V3.64574H7.75C7.33577 3.64574 7 3.98155 7 4.39574V9.10893C7 11.8678 9.05566 14.1552 11.7157 14.5207C11.7292 16.9037 11.7364 14.8306 11.7373 15.0728C11.6985 15.7462 12.0304 15.3804 12.608 15.7332C13.195 16.0919 13.9243 16.0919 14.5113 15.7332C15.0982 15.3746 15 16.4999 15.3798 16.0398C15.3709 15.9176 15.43 15.8018 15.5345 15.738C15.6392 15.6741 15.7691 15.6741 15.8737 15.7379C15.9783 15.8019 16.0373 15.9176 16.0285 16.0398C16.027 16.0598 16.0262 15.0794 16.0264 15.1L16.0507 15.2544C16.0531 15.6686 16.3908 16.0024 16.805 16C17.2178 15.9976 17.5507 15.6623 17.5506 15.2501V15.2456L17.5265 15.1176C17.5 15 17.233 15.8108 16.6557 15.458C16.0688 15.0994 15.3395 15.0994 14.7524 15.458C14.1655 15.8167 13.8328 15.4653 13.884 16.1515C13.8929 16.2737 13.8338 15.3893 13.7291 15.4533C13.6246 15.5171 13.4946 15.5171 13.39 15.4532C13.2854 15.3893 13.2261 15.274 13.2352 15.1515C13.2367 15.132 13.2373 15.1124 13.2373 15.0929C13.2372 15.0717 13.2373 16.1228 13.2157 14.52C15.8732 14.1522 17.9263 11.866 17.9263 9.10888V4.39574C17.9263 3.98155 17.5906 3.64574 17.1763 3.64574H16.2296V0.749995C16.2296 0.335808 15.8939 -3.8147e-06 15.4796 -3.8147e-06C15.0654 -3.8147e-06 14.7296 0.335808 14.7296 0.749995ZM16.4263 5.14574V9.10888C16.4263 11.2942 14.6485 13.0721 12.4631 13.0721C10.2778 13.0721 8.49995 11.2942 8.49995 9.10888V5.14574H16.4263Z" fill="white"/>
<path d="M19.0625 24.375H5.9375C5.41972 24.375 5 23.9553 5 23.4375C5 22.9197 5.41972 22.5 5.9375 22.5H19.0625C19.5802 22.5 20 22.9197 20 23.4375C20 23.9553 19.5802 24.375 19.0625 24.375Z" fill="white"/>
<path d="M19.0625 20.625H5.9375C5.41972 20.625 5 20.2053 5 19.6875C5 19.1697 5.41972 18.75 5.9375 18.75H19.0625C19.5802 18.75 20 19.1697 20 19.6875C20 20.2053 19.5802 20.625 19.0625 20.625Z" fill="white"/>
<path d="M19.0625 16.875H5.9375C5.41972 16.875 5 16.4553 5 15.9375C5 15.4197 5.41972 15 5.9375 15H19.0625C19.5802 15 20 15.4197 20 15.9375C20 16.4553 19.5802 16.875 19.0625 16.875Z" fill="white"/>
</g>
<defs>
<clipPath id="clip0_445_10669">
<rect width="24" height="24" fill="white" transform="matrix(0 -1 1 0 0 24)"/>
</clipPath>
</defs>
</svg>
