<svg width="24" height="24" viewBox="0 0 24 24" fill="none" xmlns="http://www.w3.org/2000/svg">
<path d="M11 8.23092L2.08495 5.02358M11 8.23092L19.9178 5.03418M11 8.23092V18.8792M4.13498 16.5772L9.935 18.6243C10.3297 18.7636 10.527 18.8332 10.7294 18.8609C10.909 18.8854 11.091 18.8854 11.2706 18.8609C11.473 18.8332 11.6703 18.7636 12.065 18.6243L17.865 16.5772C18.6337 16.3059 19.018 16.1703 19.3018 15.927C19.5523 15.7122 19.7459 15.4387 19.8651 15.1309C20 14.7824 20 14.3748 20 13.5596V6.4407C20 5.62554 20 5.21797 19.8651 4.86947C19.7459 4.56167 19.5523 4.28816 19.3018 4.07332C19.018 3.83008 18.6337 3.69443 17.865 3.42313L12.065 1.37607C11.6703 1.23677 11.473 1.16712 11.2706 1.13948C11.091 1.11496 10.909 1.11496 10.7294 1.13948C10.527 1.16712 10.3297 1.23677 9.935 1.37607L4.13498 3.42313C3.36629 3.69443 2.98195 3.83008 2.69824 4.07332C2.44766 4.28816 2.25414 4.56167 2.13495 4.86947C2 5.21797 2 5.62554 2 6.4407V13.5596C2 14.3748 2 14.7824 2.13495 15.1309C2.25414 15.4387 2.44766 15.7122 2.69824 15.927C2.98195 16.1703 3.36629 16.3059 4.13498 16.5772Z" stroke="#6F767E" stroke-width="1.5" stroke-linecap="round" stroke-linejoin="round"/>
<path d="M21 17V23" stroke="#6F767E" stroke-width="1.5" stroke-linecap="round" stroke-linejoin="round"/>
<path d="M23 21L21 23L19 21" stroke="#6F767E" stroke-width="1.5" stroke-linecap="round" stroke-linejoin="round"/>
</svg>
