<svg width="24" height="24" viewBox="0 0 24 24" fill="none" xmlns="http://www.w3.org/2000/svg">
<g clip-path="url(#clip0_445_10640)">
<path d="M11.9991 21.6259C11.9176 21.625 11.8374 21.6065 11.7638 21.5717L5.78258 18.8094C5.68084 18.762 5.5947 18.6866 5.53428 18.592C5.47385 18.4974 5.44164 18.3875 5.44141 18.2753V10.7717C5.44136 10.673 5.46619 10.5757 5.51362 10.4891C5.56104 10.4024 5.62952 10.3291 5.71275 10.2759C5.79598 10.2227 5.89127 10.1913 5.98983 10.1846C6.08839 10.1779 6.18705 10.1961 6.2767 10.2376L12.2461 13C12.3479 13.0474 12.434 13.1228 12.4944 13.2174C12.5548 13.312 12.5871 13.4218 12.5873 13.5341V21.0376C12.5876 21.115 12.5726 21.1916 12.5431 21.2631C12.5137 21.3346 12.4704 21.3996 12.4157 21.4543C12.361 21.509 12.296 21.5523 12.2245 21.5817C12.153 21.6112 12.0764 21.6262 11.9991 21.6259ZM6.61788 17.8988L11.4108 20.1176V13.9106L6.61788 11.6917V17.8988Z" fill="white"/>
<path d="M12.0004 21.6259C11.8879 21.626 11.7777 21.5942 11.6827 21.5341C11.5994 21.4809 11.5309 21.4075 11.4836 21.3207C11.4362 21.2339 11.4117 21.1365 11.4121 21.0376V13.5341C11.4134 13.4206 11.4473 13.3098 11.5099 13.2151C11.5725 13.1203 11.6611 13.0457 11.7651 13L17.7227 10.2376C17.8124 10.1961 17.911 10.1779 18.0096 10.1846C18.1081 10.1913 18.2034 10.2227 18.2867 10.2759C18.3699 10.3291 18.4384 10.4024 18.4858 10.4891C18.5332 10.5757 18.558 10.673 18.558 10.7717V18.2753C18.5578 18.3875 18.5255 18.4974 18.4651 18.592C18.4047 18.6866 18.3186 18.762 18.2168 18.8094L12.2474 21.5717C12.1702 21.6082 12.0857 21.6267 12.0004 21.6259ZM12.5886 13.9106V20.1176L17.3815 17.8988V11.6917L12.5886 13.9106Z" fill="white"/>
<path d="M11.9997 14.1176C11.9184 14.1157 11.8383 14.0973 11.7644 14.0635L5.78319 11.3059C5.68115 11.2588 5.59474 11.1835 5.53417 11.0888C5.4736 10.9942 5.44141 10.8841 5.44141 10.7718C5.44141 10.6594 5.4736 10.5494 5.53417 10.4547C5.59474 10.3601 5.68115 10.2847 5.78319 10.2376L11.7644 7.47529C11.8418 7.4393 11.9261 7.42065 12.0114 7.42065C12.0968 7.42065 12.1811 7.4393 12.2585 7.47529L18.2161 10.2376C18.3182 10.2847 18.4046 10.3601 18.4652 10.4547C18.5257 10.5494 18.5579 10.6594 18.5579 10.7718C18.5579 10.8841 18.5257 10.9942 18.4652 11.0888C18.4046 11.1835 18.3182 11.2588 18.2161 11.3059L12.2467 14.0682C12.1688 14.102 12.0846 14.1188 11.9997 14.1176ZM7.43025 10.7718L11.9997 12.8894L16.5691 10.7718L11.9997 8.65647L7.43025 10.7718Z" fill="white"/>
<path d="M20.9267 21.4975L20.1386 22.2862C19.8641 22.5609 19.8643 23.0061 20.1389 23.2806C20.4136 23.5551 20.8588 23.5549 21.1333 23.2802L23.1213 21.2907C23.3957 21.016 23.3956 20.5708 23.1209 20.2963L21.1314 18.3084C20.8567 18.0339 20.4115 18.0341 20.137 18.3087C19.8625 18.5834 19.8627 19.0286 20.1374 19.3031L20.9261 20.0912L16.9941 20.1214C16.6058 20.1216 16.2911 20.4365 16.2913 20.8248C16.2914 21.2132 16.6063 21.5278 16.9946 21.5277L20.9267 21.4975Z" fill="white"/>
</g>
<defs>
<clipPath id="clip0_445_10640">
<rect width="24" height="24" fill="white"/>
</clipPath>
</defs>
</svg>
