<svg width="24" height="24" viewBox="0 0 24 24" fill="none" xmlns="http://www.w3.org/2000/svg">
<path d="M11.6053 20.9191C11.7294 20.9696 11.8637 20.9971 12 20.9999C12.1424 21.0017 12.2837 20.9766 12.4144 20.9261L22.4267 16.8014C22.5979 16.7311 22.7428 16.6186 22.8444 16.4773C22.946 16.3359 23 16.1716 23 16.0038C23 15.836 22.946 15.6717 22.8444 15.5304C22.7428 15.3891 22.5979 15.2766 22.4267 15.2063L14.6079 11.1515C14.4747 11.0824 14.3158 11.179 14.3158 11.329V12.883C14.3158 12.9553 14.3548 13.0219 14.4179 13.0573L19.6642 16.0038L12 19.1659L4.33584 16.0038L9.58215 13.0573C9.64519 13.0219 9.68421 12.9553 9.68421 12.883V11.329C9.68421 11.179 9.52527 11.0824 9.39214 11.1515L1.57326 15.2063C1.40212 15.2766 1.25718 15.3891 1.15558 15.5304C1.05399 15.6717 1 15.836 1 16.0038C1 16.1716 1.05399 16.3359 1.15558 16.4773C1.25718 16.6186 1.40212 16.7311 1.57326 16.8014L11.6053 20.9191Z" fill="white"/>
<path d="M13.2938 6.16929L14.4506 7.44666C14.8535 7.89151 15.5309 7.93446 15.9636 7.5426C16.3963 7.15073 16.4205 6.47238 16.0176 6.02753L13.0996 2.8055C12.6967 2.36065 12.0193 2.3177 11.5866 2.70956L8.45262 5.54782C8.01992 5.93969 7.99574 6.61804 8.39861 7.06289C8.80149 7.50775 9.4789 7.5507 9.9116 7.15883L11.1541 6.03361L10.9842 14.0274C10.9631 14.6191 11.4249 15.1291 12.0158 15.1666C12.6067 15.2041 13.1028 14.7548 13.1238 14.1631L13.2938 6.16929Z" fill="white"/>
</svg>
