<svg width="24" height="24" viewBox="0 0 24 24" fill="none" xmlns="http://www.w3.org/2000/svg">
<path d="M22.0953 1H2.90449C2.56601 0.999347 2.25571 1.1926 2.10098 1.50037C1.94413 1.81229 1.97166 2.18789 2.17205 2.47276L9.20276 12.5954C9.2051 12.5989 9.20766 12.6021 9.21001 12.6056C9.46547 12.9581 9.60355 13.385 9.6044 13.8238V22.0767C9.60291 22.3212 9.69681 22.5559 9.86541 22.7293C10.034 22.9027 10.2632 23 10.5022 23C10.6239 23 10.744 22.9751 10.8563 22.9276L14.807 21.3879C15.1611 21.2775 15.396 20.9361 15.396 20.525V13.8238C15.3967 13.3852 15.535 12.9581 15.7902 12.6056C15.7925 12.6021 15.7951 12.5989 15.7975 12.5954L22.8279 2.47232C23.0283 2.18768 23.0559 1.81229 22.899 1.50037C22.7443 1.1926 22.434 0.999347 22.0953 1ZM14.9092 11.9441C14.5165 12.4887 14.3042 13.1472 14.3029 13.8238V20.3893L10.6971 21.7944V13.8238C10.6958 13.1472 10.4835 12.4887 10.0906 11.9441L3.26494 2.11679H21.7351L14.9092 11.9441Z" fill="white"/>
</svg>
