<svg width="16" height="16" viewBox="0 0 16 16" fill="none" xmlns="http://www.w3.org/2000/svg">
<g clip-path="url(#clip0_445_10706)">
<path d="M2.34375 5.9375H7.65625C7.91512 5.9375 8.125 5.72763 8.125 5.46875C8.125 5.20987 7.91512 5 7.65625 5H2.34375C2.08487 5 1.875 5.20987 1.875 5.46875C1.875 5.72763 2.08487 5.9375 2.34375 5.9375Z" fill="white"/>
<path d="M6.40625 6.875H2.34375C2.08487 6.875 1.875 7.08487 1.875 7.34375C1.875 7.60263 2.08487 7.8125 2.34375 7.8125H6.40625C6.66512 7.8125 6.875 7.60263 6.875 7.34375C6.875 7.08487 6.66512 6.875 6.40625 6.875Z" fill="white"/>
<path d="M6.40625 8.75H2.34375C2.08487 8.75 1.875 8.95987 1.875 9.21875C1.875 9.47763 2.08487 9.6875 2.34375 9.6875H6.40625C6.66512 9.6875 6.875 9.47763 6.875 9.21875C6.875 8.95987 6.66512 8.75 6.40625 8.75Z" fill="white"/>
<path d="M6.40625 10.625H2.34375C2.08487 10.625 1.875 10.8349 1.875 11.0938C1.875 11.3526 2.08487 11.5625 2.34375 11.5625H6.40625C6.66512 11.5625 6.875 11.3526 6.875 11.0938C6.875 10.8349 6.66512 10.625 6.40625 10.625Z" fill="white"/>
<path d="M15.8627 13.2152L13.5187 10.8712C14.4803 9.58697 14.3778 7.75287 13.2111 6.58606C12.9118 6.28684 12.5649 6.05272 12.1875 5.89041V3.59375C12.1875 3.46944 12.1381 3.35022 12.0502 3.26231L8.92531 0.137313C8.83744 0.0494063 8.71819 0 8.59387 0H1.71875C0.771031 0 0 0.771031 0 1.71875V14.2812C0 15.229 0.771031 16 1.71875 16H10.4688C11.4165 16 12.1875 15.229 12.1875 14.2812V11.9221C12.4237 11.8205 12.648 11.6907 12.8561 11.5344L15.1998 13.8781C15.2913 13.9696 15.4113 14.0154 15.5312 14.0154C15.6512 14.0154 15.7712 13.9696 15.8627 13.8781C16.0458 13.695 16.0458 13.3982 15.8627 13.2152ZM12.5482 10.5635C12.277 10.8347 11.951 11.0308 11.5953 11.1424C11.5843 11.1453 11.5736 11.1487 11.563 11.1524C11.3477 11.2166 11.1219 11.25 10.8909 11.25C10.2648 11.25 9.67625 11.0062 9.23359 10.5635C8.79091 10.1208 8.54712 9.53228 8.54712 8.90625C8.54712 8.28022 8.79091 7.69166 9.23359 7.24897C9.67625 6.80628 10.2648 6.5625 10.8909 6.5625C11.1219 6.5625 11.3478 6.59594 11.5632 6.66009C11.5737 6.66378 11.5842 6.66709 11.5951 6.67003C11.9508 6.78162 12.277 6.97775 12.5482 7.24894C13.462 8.16281 13.4619 9.64972 12.5482 10.5635ZM10.5871 3.125H9.0625V1.60044L10.5871 3.125ZM11.25 14.2812C11.25 14.712 10.8995 15.0625 10.4688 15.0625H1.71875C1.28797 15.0625 0.9375 14.712 0.9375 14.2812V1.71875C0.9375 1.28797 1.28797 0.9375 1.71875 0.9375H8.125V3.59375C8.125 3.85262 8.33488 4.0625 8.59375 4.0625H11.25V5.64453C11.1315 5.63172 11.0117 5.625 10.8909 5.625C10.0144 5.625 9.19041 5.96631 8.57069 6.58606C7.95094 7.20581 7.60962 8.02981 7.60962 8.90625C7.60962 9.78272 7.95094 10.6067 8.57069 11.2264C9.19041 11.8462 10.0144 12.1875 10.8909 12.1875C11.0117 12.1875 11.1315 12.1808 11.25 12.168V14.2812Z" fill="white"/>
</g>
<defs>
<clipPath id="clip0_445_10706">
<rect width="16" height="16" fill="white"/>
</clipPath>
</defs>
</svg>
