<svg width="18" height="18" viewBox="0 0 18 18" fill="none" xmlns="http://www.w3.org/2000/svg">
<g clip-path="url(#clip0_26_4966)">
<path d="M8.99981 11.7142C10.4989 11.7142 11.7141 10.499 11.7141 8.99993C11.7141 7.50087 10.4989 6.28564 8.99981 6.28564C7.50075 6.28564 6.28552 7.50087 6.28552 8.99993C6.28552 10.499 7.50075 11.7142 8.99981 11.7142Z" fill="#757185"/>
<path d="M12.3918 0.857178H5.60613C2.98753 0.857178 0.856812 2.98857 0.856812 5.60786V12.3936C0.856812 15.0122 2.9882 17.1429 5.60749 17.1429H12.3932C15.0118 17.1429 17.1425 15.0115 17.1425 12.3922V5.6065C17.1425 2.98789 15.0111 0.857178 12.3918 0.857178ZM8.99967 13.0715C6.75428 13.0715 4.92824 11.2454 4.92824 9.00003C4.92824 6.75464 6.75428 4.92861 8.99967 4.92861C11.2451 4.92861 13.0711 6.75464 13.0711 9.00003C13.0711 11.2454 11.2451 13.0715 8.99967 13.0715ZM13.7497 4.92861C13.3751 4.92861 13.0711 4.62461 13.0711 4.25003C13.0711 3.87546 13.3751 3.57146 13.7497 3.57146C14.1242 3.57146 14.4282 3.87546 14.4282 4.25003C14.4282 4.62461 14.1242 4.92861 13.7497 4.92861Z" fill="#757185"/>
</g>
<defs>
<clipPath id="clip0_26_4966">
<rect width="17.1429" height="17.1429" fill="white" transform="translate(0.428589 0.428467)"/>
</clipPath>
</defs>
</svg>
