<svg width="16" height="16" viewBox="0 0 16 16" fill="none" xmlns="http://www.w3.org/2000/svg">
<path fill-rule="evenodd" clip-rule="evenodd" d="M12.9178 9.81325C12.9178 9.81325 14.5645 11.4959 14.5645 13.1666C14.5645 14.2706 13.6678 15.1666 12.5645 15.1666C11.4605 15.1666 10.5645 14.2706 10.5645 13.1666C10.5645 11.4959 12.2105 9.81325 12.2105 9.81325C12.4058 9.61791 12.7225 9.61791 12.9178 9.81325ZM12.5645 10.9246C12.4005 11.1292 12.2038 11.4006 12.0265 11.7106C11.7798 12.1419 11.5645 12.6526 11.5645 13.1666C11.5645 13.7186 12.0125 14.1666 12.5645 14.1666C13.1158 14.1666 13.5645 13.7186 13.5645 13.1666C13.5645 12.6526 13.3485 12.1419 13.1018 11.7106C12.9245 11.4006 12.7278 11.1292 12.5645 10.9246Z" fill="white"/>
<path fill-rule="evenodd" clip-rule="evenodd" d="M12.3048 8.62265L8.5335 12.394C8.06483 12.8626 7.42883 13.126 6.76617 13.126C6.10283 13.126 5.46683 12.8626 4.99817 12.394L2.17017 9.56598C1.7015 9.09665 1.4375 8.46065 1.4375 7.79798C1.4375 7.13465 1.7015 6.49865 2.17017 6.02998L6.41217 1.78798C6.6075 1.59265 6.92417 1.59265 7.1195 1.78798L12.3048 6.97265C12.7602 7.42865 12.7602 8.16731 12.3048 8.62265ZM11.5975 7.91598C11.6628 7.85065 11.6628 7.74531 11.5975 7.67998L6.76617 2.84865L2.8775 6.73731C2.59617 7.01865 2.4375 7.39998 2.4375 7.79798C2.4375 8.19598 2.59617 8.57731 2.8775 8.85865L5.7055 11.6866C5.98683 11.968 6.36817 12.126 6.76617 12.126C7.1635 12.126 7.5455 11.968 7.82683 11.6866L11.5975 7.91598Z" fill="white"/>
<path fill-rule="evenodd" clip-rule="evenodd" d="M7.92686 2.596C8.1222 2.79133 8.1222 3.108 7.92686 3.30333C7.73153 3.498 7.41486 3.498 7.21953 3.30333L5.60353 1.68666C5.4082 1.492 5.4082 1.17466 5.60353 0.979996C5.79886 0.784663 6.11553 0.784663 6.31086 0.979996L7.92686 2.596Z" fill="white"/>
<path fill-rule="evenodd" clip-rule="evenodd" d="M12.0187 7.2981C12.2947 7.2981 12.5187 7.5221 12.5187 7.7981C12.5187 8.0741 12.2947 8.2981 12.0187 8.2981H2.13672C1.86072 8.2981 1.63672 8.0741 1.63672 7.7981C1.63672 7.5221 1.86072 7.2981 2.13672 7.2981H12.0187Z" fill="white"/>
</svg>
