<svg width="24" height="24" viewBox="0 0 24 24" fill="none" xmlns="http://www.w3.org/2000/svg">
<g clip-path="url(#clip0_445_10606)">
<path d="M23.791 20.6997L22.3376 19.2649C22.061 18.9918 21.6149 18.9943 21.3413 19.2703C21.0677 19.5464 21.0701 19.9916 21.3467 20.2647L21.5815 20.4964H15.5514C15.8162 20.4953 16.054 20.3473 16.1735 20.1178L17.9401 16.7271C18.1984 16.2313 17.7999 15.645 17.2414 15.7034L15.5994 15.8756C14.7709 13.7333 13.4583 11.7517 11.7156 10.1131L12.5514 8.7721C12.8471 8.29759 12.4953 7.68249 11.9332 7.69787L8.10388 7.80629C7.90256 7.81201 7.71534 7.90346 7.58709 8.05421L9.83906 3.20598L9.94912 3.51634C10.0791 3.88299 10.482 4.07396 10.8483 3.94459C11.2151 3.81503 11.4072 3.41326 11.2774 3.04717L10.5915 1.11287C10.4614 0.745931 10.0569 0.554259 9.68971 0.685509L7.76526 1.37373C7.39898 1.5047 7.20843 1.90726 7.33968 2.27284C7.47093 2.63842 7.87439 2.82845 8.24053 2.69762L8.57826 2.57682C8.44884 2.85545 0.084932 20.8618 0.0622445 20.9123C-0.147099 21.3777 0.197526 21.9056 0.708885 21.9027H21.5985L21.3453 22.1563C21.0706 22.4313 21.0713 22.8766 21.3468 23.1507C21.622 23.4245 22.0681 23.4245 22.3432 23.1491L23.7946 21.696C24.0698 21.4204 24.0683 20.9734 23.791 20.6997ZM15.4146 18.5263L14.4891 17.4062L16.0855 17.2387L15.4146 18.5263ZM10.6623 9.14078L9.8144 10.5011L9.20812 9.18198L10.6623 9.14078ZM9.0801 12.2762C9.31359 12.7841 10.0215 12.831 10.3186 12.3544L10.9541 11.3348C12.3258 12.6772 13.4044 14.2636 14.1423 16.0285L13.0375 16.1444C12.4821 16.2027 12.209 16.857 12.5676 17.291L15.0049 20.2408C15.1389 20.403 15.3375 20.4956 15.5455 20.4964H8.51981C8.28642 17.9052 6.78754 15.6751 4.62159 14.4388L7.42912 8.39439C7.36518 8.77984 7.49446 8.72771 9.0801 12.2762ZM4.02614 15.7208C5.73642 16.7432 6.88185 18.5229 7.10385 20.4965H1.80792L4.02614 15.7208Z" fill="white"/>
</g>
<defs>
<clipPath id="clip0_445_10606">
<rect width="24" height="24" fill="white"/>
</clipPath>
</defs>
</svg>
