<svg width="16" height="16" viewBox="0 0 16 16" fill="none" xmlns="http://www.w3.org/2000/svg">
<path fill-rule="evenodd" clip-rule="evenodd" d="M6.7398 1.90417C7.51482 1.43461 8.48655 1.43461 9.26159 1.90417L12.5047 3.86903C13.2326 4.31 13.6772 5.09918 13.6772 5.9502V10.0499C13.6772 10.9009 13.2326 11.6901 12.5047 12.1311L9.26157 14.0959C8.48655 14.5655 7.51482 14.5655 6.7398 14.0959L3.49667 12.1311C2.76882 11.6901 2.32422 10.9009 2.32422 10.0499V5.9502C2.32422 5.09918 2.76882 4.31 3.49667 3.86903L6.7398 1.90417ZM8.8125 2.6454C8.3135 2.34308 7.68787 2.34308 7.18889 2.6454L3.94575 4.61027C3.77124 4.716 3.62202 4.85282 3.50347 5.01118L7.87984 7.66263C7.95415 7.70767 8.04734 7.70767 8.12165 7.66263L12.498 5.01123C12.3794 4.85283 12.2302 4.716 12.0556 4.61027L8.8125 2.6454ZM3.19089 5.9502C3.19089 5.91245 3.19225 5.8749 3.19494 5.83758L7.43075 8.40387C7.47507 8.43072 7.52079 8.45417 7.56759 8.47422V13.5204C7.43637 13.4827 7.30897 13.4275 7.18889 13.3547L3.94575 11.3898C3.47714 11.1059 3.19089 10.5978 3.19089 10.0499V5.9502ZM8.43425 13.5203C8.5653 13.4826 8.69255 13.4274 8.8125 13.3547L12.0556 11.3898C12.5243 11.1059 12.8105 10.5978 12.8105 10.0499V5.9502C12.8105 5.91247 12.8091 5.87493 12.8065 5.83765L8.57074 8.40387C8.52654 8.43065 8.48092 8.45405 8.43425 8.47407V13.5203Z" fill="white"/>
</svg>
