<svg width="16" height="16" viewBox="0 0 16 16" fill="none" xmlns="http://www.w3.org/2000/svg">
<path fill-rule="evenodd" clip-rule="evenodd" d="M2.30459 7.43602L1.27192 5.11202C1.08792 4.69802 1.14659 4.21602 1.42526 3.85802L3.40792 1.30802C3.71592 0.912015 4.23392 0.742682 4.71659 0.880682L6.33259 1.34268C6.80659 1.47802 7.15392 1.88335 7.21526 2.37268L7.49259 4.59335C7.52326 4.83401 7.48126 5.07868 7.37259 5.29601L6.52659 6.98735C6.36659 7.30802 6.07326 7.54335 5.72526 7.63002L3.72659 8.13002C3.14726 8.27468 2.54726 7.98202 2.30459 7.43602ZM3.21859 7.03002C3.26392 7.13202 3.37592 7.18668 3.48459 7.16002L5.48259 6.66002C5.54792 6.64402 5.60259 6.60002 5.63259 6.54002L6.47792 4.84868C6.49859 4.80801 6.50659 4.76268 6.50059 4.71735L6.22326 2.49668C6.21126 2.40535 6.14659 2.32935 6.05792 2.30402L4.44192 1.84202C4.35192 1.81668 4.25526 1.84801 4.19726 1.92201L2.21459 4.47202C2.16259 4.53868 2.15126 4.62868 2.18592 4.70602L3.21859 7.03002Z" fill="white"/>
<path fill-rule="evenodd" clip-rule="evenodd" d="M14.5165 9.55932C14.9465 10.2047 14.9372 11.0473 14.4925 11.6827L12.9112 13.942C12.6505 14.3133 12.2652 14.5787 11.8252 14.6887L10.1379 15.1107C9.6372 15.236 9.10653 15.1493 8.67053 14.8727L6.38386 13.4167C5.59253 12.9133 5.29253 11.904 5.68053 11.05L6.61853 8.98665C6.8692 8.43532 7.3692 8.03865 7.9632 7.91932L11.5445 7.20332C12.2925 7.05399 13.0572 7.36999 13.4805 8.00465L14.5165 9.55932ZM13.6845 10.114L12.6479 8.55932C12.4499 8.26199 12.0919 8.11399 11.7412 8.18399L8.1592 8.89999C7.8812 8.95599 7.64653 9.14199 7.5292 9.39999L6.5912 11.464C6.4092 11.864 6.54986 12.3373 6.92053 12.5733L9.20786 14.0287C9.41186 14.1587 9.66053 14.1993 9.8952 14.14L11.5825 13.7187C11.7892 13.6667 11.9699 13.5427 12.0919 13.3687L13.6732 11.1093C13.8812 10.8113 13.8859 10.4167 13.6845 10.114Z" fill="white"/>
<path fill-rule="evenodd" clip-rule="evenodd" d="M9.59255 10.2033C9.32188 10.2573 9.05788 10.082 9.00388 9.81133C8.94988 9.54067 9.12588 9.27667 9.39588 9.22267L10.8539 8.93133C11.6019 8.78133 12.3659 9.098 12.7892 9.73267L13.1285 10.242C13.2819 10.472 13.2192 10.7827 12.9899 10.9353C12.7605 11.0887 12.4499 11.0267 12.2965 10.7967L11.9572 10.2873C11.7585 9.99 11.4005 9.842 11.0499 9.912L9.59255 10.2033Z" fill="white"/>
<path fill-rule="evenodd" clip-rule="evenodd" d="M9.90745 5.70339L9.26412 4.20206C9.05278 3.70939 9.19078 3.13739 9.60212 2.79406L10.9714 1.65273C11.3414 1.34473 11.8581 1.28473 12.2888 1.50006L13.4961 2.10406C14.0041 2.35806 14.2674 2.93073 14.1301 3.48139L13.6728 5.30939C13.5535 5.78673 13.1568 6.14473 12.6688 6.21473L11.1921 6.42539C10.6501 6.50273 10.1235 6.20673 9.90745 5.70339ZM10.8268 5.30939C10.8641 5.39739 10.9561 5.44939 11.0508 5.43539L12.5274 5.22473C12.6128 5.21273 12.6821 5.15006 12.7028 5.06673L13.1594 3.23873C13.1834 3.14273 13.1381 3.04273 13.0495 2.99806L11.8415 2.39473C11.7661 2.35673 11.6761 2.36739 11.6114 2.42139L10.2421 3.56273C10.1701 3.62206 10.1461 3.72206 10.1834 3.80806L10.8268 5.30939Z" fill="white"/>
<path fill-rule="evenodd" clip-rule="evenodd" d="M1.60878 12.6161L1.23944 11.7548C1.08144 11.3855 1.18411 10.9561 1.49278 10.6988L2.27878 10.0441C2.55611 9.81279 2.94411 9.76812 3.26678 9.92945L3.95944 10.2761C4.34078 10.4661 4.53811 10.8955 4.43478 11.3088L4.17211 12.3575C4.08278 12.7161 3.78544 12.9841 3.41944 13.0368L2.57211 13.1575C2.16544 13.2155 1.77078 12.9935 1.60878 12.6161ZM2.18544 11.4235L2.50011 12.1575L3.21744 12.0555L3.44678 11.1375L2.87278 10.8508L2.18544 11.4235Z" fill="white"/>
</svg>
