<svg width="24" height="24" viewBox="0 0 24 24" fill="none" xmlns="http://www.w3.org/2000/svg">
<g clip-path="url(#clip0_445_10582)">
<path d="M19.1717 7.51831H9.57409L7.48132 5.87646H0V20.9915C0 22.2098 0.990333 23.2269 2.20812 23.2587L18.8262 23.268H18.8275C19.834 23.268 20.721 22.5897 20.9847 21.6182L23.9807 10.5799H19.1717V7.51831ZM2.3795 21.8498L2.23569 21.8497V21.8499C1.78669 21.8333 1.40899 21.4422 1.40899 20.9915V7.28546H6.99461L9.08738 8.92731H17.7627V10.5799H6.28898L3.46753 20.9658C3.33071 21.4694 2.8913 21.8216 2.3795 21.8498ZM22.1383 11.9889L19.6248 21.2493C19.5274 21.6084 19.1995 21.8591 18.8274 21.8591C18.8273 21.8591 18.8271 21.8591 18.8269 21.8591L4.62713 21.851C4.71044 21.6893 4.77794 21.5168 4.8273 21.3353L7.36635 11.9889H22.1383Z" fill="white"/>
<path d="M17.3149 2.14097C18.8879 2.14097 20.2171 3.20119 20.6279 4.64423L19.7926 3.99539L18.9283 5.10807L21.4643 7.07793L24.0003 5.10807L23.136 3.99539L22.1044 4.79673C21.7263 2.4943 19.7227 0.731934 17.3149 0.731934C14.6384 0.731934 12.4609 2.90939 12.4609 5.58586H13.8699C13.87 3.68635 15.4154 2.14097 17.3149 2.14097Z" fill="white"/>
<path d="M8.80664 20.439L8.80805 19.03L17.3145 19.0385L17.3131 20.4475L8.80664 20.439Z" fill="white"/>
</g>
<defs>
<clipPath id="clip0_445_10582">
<rect width="24" height="24" fill="white"/>
</clipPath>
</defs>
</svg>
