<svg width="24" height="24" viewBox="0 0 24 24" fill="none" xmlns="http://www.w3.org/2000/svg">
<g clip-path="url(#clip0_445_10654)">
<path d="M11.9991 21.6259C11.9176 21.625 11.8374 21.6065 11.7638 21.5717L5.78258 18.8094C5.68084 18.762 5.5947 18.6866 5.53428 18.592C5.47385 18.4974 5.44164 18.3875 5.44141 18.2753V10.7717C5.44136 10.673 5.46619 10.5757 5.51362 10.4891C5.56104 10.4024 5.62952 10.3291 5.71275 10.2759C5.79598 10.2227 5.89127 10.1913 5.98983 10.1846C6.08839 10.1779 6.18705 10.1961 6.2767 10.2376L12.2461 13C12.3479 13.0474 12.434 13.1228 12.4944 13.2174C12.5548 13.312 12.5871 13.4218 12.5873 13.5341V21.0376C12.5876 21.115 12.5726 21.1916 12.5431 21.2631C12.5137 21.3346 12.4704 21.3996 12.4157 21.4543C12.361 21.509 12.296 21.5523 12.2245 21.5817C12.153 21.6112 12.0764 21.6262 11.9991 21.6259ZM6.61788 17.8988L11.4108 20.1176V13.9106L6.61788 11.6917V17.8988Z" fill="white"/>
<path d="M12.0004 21.6259C11.8879 21.626 11.7777 21.5942 11.6827 21.5341C11.5994 21.4809 11.5309 21.4075 11.4836 21.3207C11.4362 21.2339 11.4117 21.1365 11.4121 21.0376V13.5341C11.4134 13.4206 11.4473 13.3098 11.5099 13.2151C11.5725 13.1203 11.6611 13.0457 11.7651 13L17.7227 10.2376C17.8124 10.1961 17.911 10.1779 18.0096 10.1846C18.1081 10.1913 18.2034 10.2227 18.2867 10.2759C18.3699 10.3291 18.4384 10.4024 18.4858 10.4891C18.5332 10.5757 18.558 10.673 18.558 10.7717V18.2753C18.5578 18.3875 18.5255 18.4974 18.4651 18.592C18.4047 18.6866 18.3186 18.762 18.2168 18.8094L12.2474 21.5717C12.1702 21.6082 12.0857 21.6267 12.0004 21.6259ZM12.5886 13.9106V20.1176L17.3815 17.8988V11.6917L12.5886 13.9106Z" fill="white"/>
<path d="M11.9997 14.1176C11.9184 14.1157 11.8383 14.0973 11.7644 14.0635L5.78319 11.3059C5.68115 11.2588 5.59474 11.1835 5.53417 11.0888C5.4736 10.9942 5.44141 10.8841 5.44141 10.7718C5.44141 10.6594 5.4736 10.5494 5.53417 10.4547C5.59474 10.3601 5.68115 10.2847 5.78319 10.2376L11.7644 7.47529C11.8418 7.4393 11.9261 7.42065 12.0114 7.42065C12.0968 7.42065 12.1811 7.4393 12.2585 7.47529L18.2161 10.2376C18.3182 10.2847 18.4046 10.3601 18.4652 10.4547C18.5257 10.5494 18.5579 10.6594 18.5579 10.7718C18.5579 10.8841 18.5257 10.9942 18.4652 11.0888C18.4046 11.1835 18.3182 11.2588 18.2161 11.3059L12.2467 14.0682C12.1688 14.102 12.0846 14.1188 11.9997 14.1176ZM7.43025 10.7718L11.9997 12.8894L16.5691 10.7718L11.9997 8.65647L7.43025 10.7718Z" fill="white"/>
<path d="M20.0154 23.9876C19.8874 24.0528 19.74 24.0688 19.601 24.0328C19.462 23.9968 19.341 23.9112 19.2607 23.7921C19.1805 23.673 19.1466 23.5287 19.1654 23.3863C19.1842 23.2439 19.2544 23.1134 19.3629 23.0192L20.2189 22.2623L19.463 21.4084C19.4061 21.3516 19.3613 21.2838 19.3316 21.2091C19.3018 21.1343 19.2877 21.0543 19.2902 20.9739C19.2926 20.8935 19.3115 20.8144 19.3457 20.7416C19.3798 20.6688 19.4286 20.6038 19.4889 20.5506C19.5492 20.4973 19.6198 20.457 19.6963 20.4322C19.7728 20.4073 19.8536 20.3984 19.9337 20.406C20.0137 20.4136 20.0914 20.4375 20.1619 20.4763C20.2323 20.5151 20.2941 20.568 20.3433 20.6316L21.4876 21.9282C21.5906 22.0449 21.6432 22.1977 21.6338 22.3531C21.6244 22.5086 21.5538 22.6539 21.4374 22.7573L20.1408 23.9016C20.1029 23.9356 20.0607 23.9645 20.0154 23.9876Z" fill="white"/>
<path d="M17.0198 23.9876C17.1478 24.0528 17.2951 24.0688 17.4342 24.0328C17.5732 23.9968 17.6942 23.9112 17.7744 23.7921C17.8547 23.673 17.8886 23.5287 17.8698 23.3863C17.8509 23.2439 17.7807 23.1134 17.6723 23.0192L16.8163 22.2623L17.5721 21.4084C17.6291 21.3516 17.6739 21.2838 17.7036 21.2091C17.7333 21.1343 17.7474 21.0543 17.745 20.9739C17.7426 20.8935 17.7237 20.8144 17.6895 20.7416C17.6553 20.6688 17.6066 20.6038 17.5462 20.5506C17.4859 20.4973 17.4154 20.457 17.3389 20.4322C17.2624 20.4073 17.1816 20.3984 17.1015 20.406C17.0214 20.4136 16.9438 20.4375 16.8733 20.4763C16.8028 20.5151 16.7411 20.568 16.6918 20.6316L15.5476 21.9282C15.4445 22.0449 15.3919 22.1977 15.4013 22.3531C15.4107 22.5086 15.4813 22.6539 15.5977 22.7573L16.8944 23.9016C16.9323 23.9356 16.9744 23.9645 17.0198 23.9876Z" fill="white"/>
</g>
<defs>
<clipPath id="clip0_445_10654">
<rect width="24" height="24" fill="white"/>
</clipPath>
</defs>
</svg>
