<svg width="24" height="24" viewBox="0 0 24 24" fill="none" xmlns="http://www.w3.org/2000/svg">
<g clip-path="url(#clip0_450_5365)">
<path d="M23.2969 0H0.703125C0.314812 0 0 0.314812 0 0.703125V23.2969C0 23.6852 0.314812 24 0.703125 24H23.2969C23.6852 24 24 23.6852 24 23.2969V0.703125C24 0.314812 23.6852 0 23.2969 0ZM22.5938 22.5938H1.40625V1.40625H22.5938V22.5938Z" fill="white"/>
<path d="M16.2472 8.74716L19.7344 5.25998V6.375C19.7344 6.76331 20.0492 7.07812 20.4375 7.07812C20.8258 7.07812 21.1406 6.76331 21.1406 6.375V3.5625C21.1406 3.17419 20.8258 2.85938 20.4375 2.85938H17.625C17.2367 2.85938 16.9219 3.17419 16.9219 3.5625C16.9219 3.95081 17.2367 4.26562 17.625 4.26562H18.74L15.2528 7.75284C14.9782 8.02744 14.9782 8.47261 15.2528 8.7472C15.5274 9.02175 15.9726 9.02175 16.2472 8.74716Z" fill="white"/>
<path d="M3.5625 7.07812C3.95081 7.07812 4.26562 6.76331 4.26562 6.375V5.25998L7.75284 8.74716C8.02744 9.02175 8.47261 9.02175 8.7472 8.74716C9.0218 8.47256 9.0218 8.02739 8.7472 7.7528L5.25998 4.26562H6.375C6.76331 4.26562 7.07812 3.95081 7.07812 3.5625C7.07812 3.17419 6.76331 2.85938 6.375 2.85938H3.5625C3.17419 2.85938 2.85938 3.17419 2.85938 3.5625V6.375C2.85938 6.76331 3.17419 7.07812 3.5625 7.07812Z" fill="white"/>
<path d="M18.74 19.7344H17.625C17.2367 19.7344 16.9219 20.0492 16.9219 20.4375C16.9219 20.8258 17.2367 21.1406 17.625 21.1406H20.4375C20.8258 21.1406 21.1406 20.8258 21.1406 20.4375V17.625C21.1406 17.2367 20.8258 16.9219 20.4375 16.9219C20.0492 16.9219 19.7344 17.2367 19.7344 17.625V18.74L16.2472 15.2528C15.9726 14.9782 15.5274 14.9782 15.2528 15.2528C14.9782 15.5274 14.9782 15.9726 15.2528 16.2472L18.74 19.7344Z" fill="white"/>
<path d="M3.5625 21.1406H6.375C6.76331 21.1406 7.07812 20.8258 7.07812 20.4375C7.07812 20.0492 6.76331 19.7344 6.375 19.7344H5.25998L8.74716 16.2472C9.02175 15.9726 9.02175 15.5274 8.74716 15.2528C8.47256 14.9782 8.02739 14.9782 7.7528 15.2528L4.26562 18.74V17.625C4.26562 17.2367 3.95081 16.9219 3.5625 16.9219C3.17419 16.9219 2.85938 17.2367 2.85938 17.625V20.4375C2.85938 20.8258 3.17419 21.1406 3.5625 21.1406Z" fill="white"/>
</g>
<defs>
<clipPath id="clip0_450_5365">
<rect width="24" height="24" fill="white"/>
</clipPath>
</defs>
</svg>
