<svg width="24" height="24" viewBox="0 0 24 24" fill="none" xmlns="http://www.w3.org/2000/svg">
<path d="M20.5952 7.40629C20.666 7.40629 20.7371 7.4196 20.8047 7.44674C20.9823 7.51804 21.1115 7.67474 21.1476 7.86276L21.9586 12.0873C22.0171 12.3924 21.8173 12.6872 21.5122 12.7458C21.2071 12.8044 20.9123 12.6045 20.8538 12.2994L20.2078 8.93423L17.4148 10.919C17.1616 11.099 16.8103 11.0396 16.6304 10.7863C16.4505 10.5331 16.5098 10.1819 16.7631 10.002L20.2694 7.51035C20.366 7.44163 20.4802 7.40629 20.5952 7.40629Z" fill="white" stroke="white"/>
<path d="M20.2902 7.72073C20.3163 7.72073 20.3427 7.72256 20.3692 7.72631C20.6769 7.76953 20.8912 8.05396 20.848 8.3616C20.4927 10.8894 19.173 13.1284 17.1321 14.6662C15.0913 16.2039 12.5754 16.8551 10.0473 16.4997C8.08382 16.2236 6.28368 15.3621 4.84147 14.0082C3.43189 12.6848 2.46463 10.9924 2.0443 9.11376C1.97652 8.81057 2.16725 8.50982 2.47044 8.442C2.77363 8.37403 3.07438 8.56495 3.14221 8.86814C3.51303 10.5258 4.36691 12.0196 5.61149 13.1879C6.88354 14.3822 8.47157 15.1421 10.2039 15.3857C12.4341 15.6991 14.6543 15.1246 16.4551 13.7677C18.256 12.4108 19.4204 10.4352 19.7339 8.20504C19.7734 7.92398 20.0143 7.72078 20.2902 7.72073Z" fill="white" stroke="white"/>
</svg>
