<svg width="24" height="24" viewBox="0 0 24 24" fill="none" xmlns="http://www.w3.org/2000/svg">
<g clip-path="url(#clip0_445_10589)">
<path d="M17.099 13.3756L14.3183 13.2827C13.7966 13.2653 13.3858 12.8887 13.4008 12.4415C13.4157 11.9943 13.8508 11.6459 14.3725 11.6633L17.1532 11.7562C20.0763 11.8537 22.4515 14.0313 22.3678 16.5369L22.3642 16.6452C22.2804 19.1508 19.7651 21.1652 16.8419 21.0675L14.0613 20.9747C13.5396 20.9573 13.1287 20.5806 13.1437 20.1334C13.1586 19.6863 13.5937 19.3378 14.1154 19.3553L16.8961 19.4481C18.7758 19.5109 20.4209 18.1934 20.4748 16.5822L20.4784 16.4739C20.5323 14.8627 18.9788 13.4383 17.099 13.3756Z" fill="white"/>
<path d="M9.91869 12.315C9.90376 12.7622 9.46867 13.1106 8.94695 13.0932L6.16635 13.0003C4.28656 12.9375 2.64138 14.255 2.58754 15.8662L2.58392 15.9745C2.53016 17.5857 4.08365 19.01 5.96333 19.0728L8.74395 19.1657C9.26571 19.1831 9.67656 19.5597 9.66162 20.0069C9.6466 20.4541 9.21158 20.8025 8.68982 20.7851L5.90913 20.6923C2.986 20.5946 0.610817 18.4171 0.694517 15.9115L0.698207 15.8031C0.782081 13.2976 3.29729 11.2833 6.22048 11.3808L9.0011 11.4737C9.52283 11.4911 9.93364 11.8678 9.91869 12.315Z" fill="white"/>
<path d="M15.0839 17.1262C15.6057 17.1396 16.0371 16.7879 16.0475 16.3406C16.0578 15.8932 15.6432 15.5197 15.1213 15.5062L7.97796 15.3219C7.45615 15.3084 7.02468 15.6602 7.01439 16.1075C7.00403 16.5549 7.4187 16.9284 7.94057 16.9419L15.0839 17.1262Z" fill="white"/>
<path d="M16.1937 5.65471C16.8925 4.57353 16.6161 3.24831 15.6187 2.40569L15.7781 3.23172L14.4844 3.39375L14.0004 0.885908L16.7376 -0.0923255L17.2634 0.933772L16.1499 1.3317C17.8645 2.48548 18.4154 4.54683 17.3457 6.20177C16.1568 8.04133 13.4091 8.69256 11.2208 7.65342L11.8467 6.68499C13.3998 7.42245 15.3498 6.96027 16.1937 5.65471Z" fill="white"/>
</g>
<defs>
<clipPath id="clip0_445_10589">
<rect width="24" height="24" fill="white"/>
</clipPath>
</defs>
</svg>
