<svg width="24" height="24" viewBox="0 0 24 24" fill="none" xmlns="http://www.w3.org/2000/svg">
<g clip-path="url(#clip0_445_10629)">
<path d="M17.7121 0.764038C18.2194 0.764038 18.7077 0.956769 19.0782 1.30321L23.3571 5.30445C23.7613 5.68238 23.9908 6.21086 23.9911 6.76419L23.9989 21.2348C23.9995 22.3398 23.1039 23.2359 21.9989 23.2359H5.77953C5.19912 23.2359 4.64734 22.9838 4.26745 22.545L0.487915 18.1792C0.173212 17.8157 0 17.351 0 16.8701V1.76404C0 1.21175 0.447716 0.764038 1 0.764038H17.7121ZM5.86875 20.825C5.86875 21.3773 6.31647 21.825 6.86875 21.825H21.5891C22.1413 21.825 22.5891 21.3773 22.5891 20.825V8.27498C22.5891 7.72269 22.1413 7.27498 21.5891 7.27498H6.86875C6.31647 7.27498 5.86875 7.72269 5.86875 8.27498V20.825ZM5.0849 5.48139C5.29387 5.72431 5.59837 5.86404 5.91881 5.86404H21.4267C21.6086 5.86404 21.6961 5.64076 21.5625 5.5172L18.2359 2.4408C18.0511 2.2699 17.8086 2.17498 17.5569 2.17498H2.45856C2.37304 2.17498 2.32697 2.27536 2.38275 2.34019L5.0849 5.48139ZM1.41094 17.0906L4.45781 20.6062V6.91404L1.41094 3.37498V17.0906Z" fill="white"/>
</g>
<defs>
<clipPath id="clip0_445_10629">
<rect width="24" height="24" fill="white" transform="matrix(-1 0 0 1 24 0)"/>
</clipPath>
</defs>
</svg>
