<svg width="24" height="24" viewBox="0 0 24 24" fill="none" xmlns="http://www.w3.org/2000/svg">
<path d="M17.0002 22.9999C16.8686 23.0007 16.7381 22.9755 16.6163 22.9257C16.4944 22.8759 16.3836 22.8026 16.2902 22.7099L12.2902 18.7099C12.1019 18.5216 11.9961 18.2662 11.9961 17.9999C11.9961 17.7336 12.1019 17.4782 12.2902 17.2899C12.4785 17.1016 12.7339 16.9958 13.0002 16.9958C13.2665 16.9958 13.5219 17.1016 13.7102 17.2899L16.0002 19.5899V1.99994C16.0002 1.73472 16.1055 1.48037 16.2931 1.29283C16.4806 1.1053 16.735 0.999939 17.0002 0.999939C17.2654 0.999939 17.5198 1.1053 17.7073 1.29283C17.8948 1.48037 18.0002 1.73472 18.0002 1.99994V19.5899L20.2902 17.2899C20.4785 17.1016 20.7339 16.9958 21.0002 16.9958C21.2665 16.9958 21.5219 17.1016 21.7102 17.2899C21.8985 17.4782 22.0043 17.7336 22.0043 17.9999C22.0043 18.2662 21.8985 18.5216 21.7102 18.7099L17.7102 22.7099C17.6167 22.8026 17.5059 22.8759 17.3841 22.9257C17.2623 22.9755 17.1318 23.0007 17.0002 22.9999ZM7.00019 22.9999C6.73497 22.9999 6.48062 22.8946 6.29308 22.707C6.10554 22.5195 6.00019 22.2652 6.00019 21.9999V4.40994L3.71019 6.70994C3.52188 6.89824 3.26649 7.00403 3.00019 7.00403C2.73388 7.00403 2.47849 6.89824 2.29019 6.70994C2.10188 6.52164 1.99609 6.26624 1.99609 5.99994C1.99609 5.73364 2.10188 5.47824 2.29019 5.28994L6.29019 1.28994C6.38315 1.19621 6.49375 1.12182 6.61561 1.07105C6.73747 1.02028 6.86817 0.994141 7.00019 0.994141C7.1322 0.994141 7.2629 1.02028 7.38476 1.07105C7.50662 1.12182 7.61722 1.19621 7.71019 1.28994L11.7102 5.28994C11.8985 5.47824 12.0043 5.73364 12.0043 5.99994C12.0043 6.26624 11.8985 6.52164 11.7102 6.70994C11.5219 6.89824 11.2665 7.00403 11.0002 7.00403C10.7339 7.00403 10.4785 6.89824 10.2902 6.70994L8.00019 4.40994V21.9999C8.00019 22.2652 7.89483 22.5195 7.70729 22.707C7.51976 22.8946 7.2654 22.9999 7.00019 22.9999Z" fill="white"/>
</svg>
