<svg width="114" height="116" viewBox="0 0 114 116" fill="none" xmlns="http://www.w3.org/2000/svg">
<path d="M58.4114 114.099C87.1542 114.099 110.456 90.5023 110.456 61.2925C110.456 32.0828 87.0515 8.48624 58.4114 8.48624C29.6686 8.48624 6.36646 32.0828 6.36646 61.2925C6.36646 90.5023 29.6686 114.099 58.4114 114.099Z" fill="#1A1D1F" stroke="#374147" stroke-width="2" stroke-miterlimit="10"/>
<path d="M94.7297 32.7409L94.8089 99.193C94.6841 101.394 92.9144 103.314 90.7369 103.176L26.8095 102.125C24.632 101.987 22.7235 100.187 22.8483 97.9859L23.842 12.6044C23.6284 10.2051 25.7365 8.48323 27.914 8.62136L74.3714 9.44772L94.7297 32.7409Z" fill="#2D3337" stroke="#111315" stroke-width="1.92308" stroke-miterlimit="10"/>
<path d="M66.2626 23.0091L35.4593 22.5519C34.7579 22.5977 34.0112 21.9332 34.2323 21.1507C34.187 20.4404 34.8432 19.6843 35.4472 19.8095L66.153 20.4376C66.8544 20.3918 67.6011 21.0563 67.4775 21.6679C67.5227 22.3781 66.8665 23.1342 66.2626 23.0091Z" fill="#111315"/>
<path d="M47.0565 30.2455L35.2821 29.9721C34.5807 30.0179 34.0028 29.4521 34.1264 28.8405C34.0812 28.1302 34.7374 27.3741 35.3413 27.4993L46.947 27.6741C47.6484 27.6282 48.395 28.2927 48.2714 28.9043C48.583 29.5423 47.9268 30.2984 47.0565 30.2455Z" fill="#111315"/>
<path d="M74.4929 9.36209L74.3637 27.7501C74.4733 30.3215 76.6158 32.4859 79.0577 32.5459L95.2809 32.9129" fill="#111315"/>
<path d="M80.2973 64.7256C80.5324 60.76 80.5534 55.9854 79.4831 51.9405C78.9122 49.7832 77.7113 47.9414 75.6854 46.757C73.6595 45.5725 71.4125 45.1706 68.8018 45.012C64.3792 44.4778 60.2942 44.1411 55.9169 44.3172C52.0721 44.3489 47.6234 44.2554 43.8691 45.7075C38.7572 47.9616 38.0348 52.782 37.7214 58.0695C37.4864 62.035 37.4654 66.8096 38.5357 70.8545C39.3919 74.0905 41.7033 76.3535 44.8918 77.078C48.9245 78.296 57.6531 78.3843 61.7642 78.2804C65.4401 78.1501 69.5251 78.4868 73.0131 77.1068C79.1379 75.445 80.1266 70.5523 80.2973 64.7256Z" fill="#111315"/>
<path fill-rule="evenodd" clip-rule="evenodd" d="M57.9283 0C58.365 0 58.719 0.353977 58.719 0.790629V5.53441C58.719 5.97106 58.365 6.32504 57.9283 6.32504C57.4917 6.32504 57.1377 5.97106 57.1377 5.53441V0.790629C57.1377 0.353977 57.4917 0 57.9283 0Z" fill="#393F43"/>
<path fill-rule="evenodd" clip-rule="evenodd" d="M68.5016 0.23157C68.8104 0.54033 68.8104 1.04093 68.5016 1.34969L62.7037 7.14764C62.3949 7.4564 61.8943 7.4564 61.5856 7.14764C61.2768 6.83888 61.2768 6.33828 61.5856 6.02952L67.3835 0.23157C67.6923 -0.07719 68.1929 -0.07719 68.5016 0.23157Z" fill="#393F43"/>
<path fill-rule="evenodd" clip-rule="evenodd" d="M61.8813 11.3316C61.8813 10.895 62.2353 10.541 62.672 10.541H67.9428C68.3795 10.541 68.7335 10.895 68.7335 11.3316C68.7335 11.7683 68.3795 12.1223 67.9428 12.1223H62.672C62.2353 12.1223 61.8813 11.7683 61.8813 11.3316Z" fill="#393F43"/>
</svg>
