<svg width="20" height="20" viewBox="0 0 20 20" fill="none" xmlns="http://www.w3.org/2000/svg">
<path d="M5.83268 2.91671C5.83268 2.45647 5.45959 2.08337 4.99935 2.08337C4.53911 2.08337 4.16602 2.45647 4.16602 2.91671V9.58337C4.16602 12.805 6.77769 15.4167 9.99935 15.4167C13.221 15.4167 15.8327 12.805 15.8327 9.58337V2.91671C15.8327 2.45647 15.4596 2.08337 14.9993 2.08337C14.5391 2.08337 14.166 2.45647 14.166 2.91671V9.58337C14.166 11.8846 12.3005 13.75 9.99935 13.75C7.69816 13.75 5.83268 11.8846 5.83268 9.58337V2.91671Z" fill="#6F767E"/>
<path d="M4.99935 16.25C4.53911 16.25 4.16602 16.6231 4.16602 17.0834C4.16602 17.5436 4.53911 17.9167 4.99935 17.9167H14.9993C15.4596 17.9167 15.8327 17.5436 15.8327 17.0834C15.8327 16.6231 15.4596 16.25 14.9993 16.25H4.99935Z" fill="#6F767E"/>
</svg>
