<svg width="22" height="24" viewBox="0 0 22 24" fill="none" xmlns="http://www.w3.org/2000/svg">
<g clip-path="url(#clip0_445_10625)">
<path d="M1.37811 17.6669L13.5812 23.0323C13.6327 23.0616 13.6909 23.0769 13.75 23.0769C13.8091 23.0769 13.8673 23.0616 13.9188 23.0323L20.6219 17.6669C20.675 17.6368 20.7192 17.593 20.7499 17.54C20.7807 17.487 20.7969 17.4268 20.7969 17.3654V6.63463C20.7969 6.57327 20.7807 6.51301 20.7499 6.46002C20.7192 6.40704 20.675 6.36323 20.6219 6.3331L13.9188 0.967717C13.8673 0.938465 13.8091 0.923096 13.75 0.923096C13.6909 0.923096 13.6327 0.938465 13.5812 0.967717L1.3781 6.3331C1.32502 6.36324 1.28084 6.40704 1.25009 6.46002C1.21934 6.51301 1.20313 6.57327 1.20312 6.63463V17.3654C1.20313 17.4268 1.21934 17.487 1.25009 17.54C1.28084 17.593 1.32502 17.6368 1.37811 17.6669ZM14.0938 1.86172L20.1094 6.83687V17.1632L14.0938 22.1383V1.86172ZM1.89062 6.83687L13.4062 1.86172V22.1383L1.89062 17.1632V6.83687Z" fill="white" stroke="white" stroke-width="0.5"/>
</g>
<defs>
<clipPath id="clip0_445_10625">
<rect width="22" height="24" fill="white"/>
</clipPath>
</defs>
</svg>
