<svg width="24" height="24" viewBox="0 0 24 24" fill="none" xmlns="http://www.w3.org/2000/svg">
<path d="M20.9055 17.2696V8.63264C20.9055 8.48513 20.819 8.3513 20.6845 8.29074L11.5996 4.19911V1.83942L11.754 2.03709C11.8814 2.20031 12.1171 2.22938 12.2803 2.10183C12.4436 1.97438 12.4726 1.73869 12.3451 1.57547L11.5201 0.519188C11.4491 0.428203 11.34 0.375 11.2246 0.375C11.1091 0.375 11.0001 0.428203 10.929 0.519188L10.1041 1.57547C9.97666 1.73869 10.0056 1.97438 10.1689 2.10183C10.3322 2.22928 10.5678 2.20022 10.6953 2.03705L10.8496 1.83938V4.19902L1.76463 8.29074C1.63015 8.3513 1.54362 8.48508 1.54362 8.63264V17.2696C1.54362 17.4171 1.63015 17.5509 1.76463 17.6115L2.94494 18.1431L1.96127 19.1268L1.99188 18.8779C2.01715 18.6723 1.87099 18.4852 1.66544 18.4599C1.45933 18.4347 1.27273 18.5808 1.24746 18.7863L1.08387 20.1165C1.06976 20.2311 1.10927 20.3459 1.19088 20.4275C1.26166 20.4983 1.35724 20.5373 1.45601 20.5373C1.47124 20.5373 1.48652 20.5364 1.50185 20.5345L2.83207 20.3709C3.03762 20.3456 3.18377 20.1585 3.15851 19.953C3.13324 19.7474 2.94602 19.6019 2.74052 19.6265L2.49157 19.6571L3.67624 18.4725L11.0706 21.8027C11.1196 21.8248 11.1721 21.8358 11.2246 21.8358C11.2771 21.8358 11.3296 21.8248 11.3786 21.8027L20.6845 17.6115C20.819 17.5509 20.9055 17.4171 20.9055 17.2696ZM10.8496 8.13295C10.8496 8.34005 11.0175 8.50795 11.2246 8.50795C11.4317 8.50795 11.5996 8.34005 11.5996 8.13295V6.89119L15.4662 8.63264L11.2246 10.543L6.98294 8.63264L10.8496 6.89114V8.13295ZM10.8496 6.06863L5.91574 8.29074C5.78126 8.3513 5.69473 8.48508 5.69473 8.63264C5.69473 8.7802 5.78126 8.91399 5.91574 8.97455L11.0706 11.2962C11.1196 11.3183 11.1721 11.3293 11.2246 11.3293C11.2771 11.3293 11.3296 11.3183 11.3786 11.2962L16.5334 8.97455C16.6679 8.91399 16.7545 8.7802 16.7545 8.63264C16.7545 8.48508 16.6679 8.3513 16.5334 8.29074L11.5996 6.06867V5.02163L19.6174 8.63269L11.2246 12.4126L2.83183 8.63264L10.8496 5.02158V6.06863ZM6.94183 14.6766C6.79535 14.5301 6.55797 14.5302 6.41149 14.6766L4.80115 16.287L3.99837 15.9254V11.8501L9.14501 14.1681V18.2434L5.53249 16.6163L6.94188 15.207C7.08827 15.0604 7.08827 14.823 6.94183 14.6766ZM9.36598 19.1654C9.41515 19.1876 9.46765 19.1985 9.51991 19.1985C9.59112 19.1985 9.6619 19.1783 9.72354 19.1385C9.83041 19.0694 9.89496 18.9508 9.89496 18.8235V13.9256C9.89496 13.7781 9.80843 13.6443 9.67394 13.5837L3.7773 10.928C3.6611 10.8757 3.52657 10.8859 3.41974 10.955C3.31287 11.0241 3.24832 11.1427 3.24832 11.2699V16.1678C3.24832 16.3153 3.33485 16.4491 3.46933 16.5097L4.23401 16.854L3.51208 17.576L2.29366 17.0272V9.21281L10.8496 13.0662V20.8807L4.24338 17.9053L4.9653 17.1834L9.36598 19.1654ZM11.5996 20.8807V13.0662L20.1555 9.21281V17.0273L11.5996 20.8807ZM19.0294 10.955C18.9226 10.8859 18.7879 10.8757 18.6719 10.928L12.7752 13.5837C12.6408 13.6443 12.5542 13.7781 12.5542 13.9256V18.8235C12.5542 18.9508 12.6188 19.0694 12.7256 19.1385C12.7872 19.1783 12.8581 19.1985 12.9293 19.1985C12.9815 19.1985 13.034 19.1876 13.0832 19.1654L18.9799 16.5097C19.1143 16.4491 19.2009 16.3153 19.2009 16.1678V11.2699C19.2009 11.1427 19.1363 11.0241 19.0294 10.955ZM18.4509 15.9254L13.3042 18.2433V14.168L18.4509 11.8501V15.9254ZM22.8756 18.8555L22.2513 20.0415C22.1547 20.2247 21.9279 20.295 21.7448 20.1986C21.5615 20.1021 21.4912 19.8754 21.5876 19.6921L21.7044 19.4702L14.2529 22.8262L14.4966 22.8857C14.6978 22.9349 14.821 23.1379 14.7717 23.3391C14.7299 23.5103 14.5766 23.6251 14.4078 23.6251C14.3783 23.6251 14.3483 23.6216 14.3184 23.6143L13.0165 23.2959C12.9043 23.2685 12.8111 23.1909 12.7637 23.0857C12.7162 22.9804 12.7199 22.8591 12.7737 22.757L13.3981 21.571C13.4946 21.3878 13.7214 21.3174 13.9046 21.4139C14.0879 21.5104 14.1582 21.7371 14.0618 21.9204L13.945 22.1423L21.3965 18.7863L21.1528 18.7268C20.9516 18.6776 20.8285 18.4746 20.8777 18.2734C20.9269 18.0722 21.1299 17.9491 21.331 17.9983L22.6329 18.3166C22.745 18.3441 22.8383 18.4216 22.8857 18.5269C22.9331 18.6321 22.9294 18.7533 22.8756 18.8555Z" fill="white"/>
</svg>
