<svg width="25" height="25" viewBox="0 0 25 25" fill="none" xmlns="http://www.w3.org/2000/svg">
<g clip-path="url(#clip0_2019_1444)">
<path d="M19.4509 13.1722C19.4735 15.5331 20.8459 16.8771 21.8258 17.5375C22.3469 17.8886 22.6591 18.5083 22.4163 19.0767C22.1403 19.7228 21.7035 20.6035 21.0714 21.4992C20.0324 22.9714 18.9542 24.4382 17.2556 24.4685C15.5866 24.4984 15.0499 23.509 13.1417 23.509C11.2341 23.509 10.6378 24.4382 9.05788 24.4984C7.4183 24.5586 6.16974 22.9065 5.12223 21.4396C2.98167 18.4392 1.34583 12.9612 3.54234 9.2635C4.63352 7.42719 6.58354 6.26436 8.70011 6.23454C10.3101 6.20477 11.8298 7.2847 12.814 7.2847C13.7977 7.2847 15.6443 5.98598 17.5857 6.17672C18.253 6.20364 19.9103 6.40091 21.2928 7.62122C21.8179 8.08464 21.6309 8.87224 21.1245 9.3548C20.3543 10.0887 19.434 11.3478 19.4509 13.1722ZM16.3141 4.1917C16.9527 3.44231 17.4381 2.47736 17.5883 1.4578C17.681 0.829118 17.0942 0.346824 16.4719 0.545159C15.5263 0.846568 14.5772 1.4404 13.9388 2.1647C13.3209 2.85733 12.7618 3.86861 12.6197 4.92739C12.5438 5.49306 13.0442 5.95254 13.6194 5.83263C14.6679 5.61404 15.6523 4.96884 16.3141 4.1917Z" fill="#FCFCFC"/>
</g>
<defs>
<clipPath id="clip0_2019_1444">
<rect width="24" height="24" fill="white" transform="translate(0.5 0.5)"/>
</clipPath>
</defs>
</svg>
