<svg width="20" height="20" viewBox="0 0 20 20" fill="none" xmlns="http://www.w3.org/2000/svg">
<g clip-path="url(#clip0_162_6513)">
<path d="M18.334 6.66671C17.8737 6.66671 17.5006 6.29361 17.5006 5.83337V3.67855L11.1791 10L17.5006 16.3215V14.1667C17.5006 13.7065 17.8737 13.3334 18.334 13.3334C18.7942 13.3334 19.1673 13.7065 19.1673 14.1667V17.5C19.1673 18.4205 18.4211 19.1667 17.5006 19.1667H14.1673C13.7071 19.1667 13.334 18.7936 13.334 18.3334C13.334 17.8731 13.7071 17.5 14.1673 17.5H16.3221L10.0007 11.1785L3.67916 17.5H5.83398C6.29422 17.5 6.66732 17.8731 6.66732 18.3334C6.66732 18.7936 6.29422 19.1667 5.83398 19.1667H2.50065C1.58018 19.1667 0.833984 18.4205 0.833984 17.5V14.1667C0.833984 13.7065 1.20708 13.3334 1.66732 13.3334C2.12755 13.3334 2.50065 13.7065 2.50065 14.1667V16.3215L8.82215 10L2.50065 3.67856V5.83337C2.50065 6.29361 2.12755 6.66671 1.66732 6.66671C1.20708 6.66671 0.833984 6.29361 0.833984 5.83337V2.50004C0.833984 1.57957 1.58018 0.833374 2.50065 0.833374H5.83398C6.29422 0.833374 6.66732 1.20647 6.66732 1.66671C6.66732 2.12694 6.29422 2.50004 5.83398 2.50004H3.67916L10.0007 8.82154L16.3221 2.50004H14.1673C13.7071 2.50004 13.334 2.12694 13.334 1.66671C13.334 1.20647 13.7071 0.833374 14.1673 0.833374H17.5006C18.4211 0.833374 19.1673 1.57957 19.1673 2.50004V5.83337C19.1673 6.29361 18.7942 6.66671 18.334 6.66671Z" fill="#6F767E"/>
</g>
<defs>
<clipPath id="clip0_162_6513">
<rect width="20" height="20" fill="white"/>
</clipPath>
</defs>
</svg>
