<svg width="20" height="20" viewBox="0 0 20 20" fill="none" xmlns="http://www.w3.org/2000/svg">
<g clip-path="url(#clip0_162_6522)">
<path d="M17.5006 16.3215L11.1791 10L10.0007 8.82154L3.67916 2.50004H5.83398C6.29422 2.50004 6.66732 2.12694 6.66732 1.66671C6.66732 1.20647 6.29422 0.833374 5.83398 0.833374H2.50065C1.58018 0.833374 0.833984 1.57957 0.833984 2.50004V5.83337C0.833984 6.29361 1.20708 6.66671 1.66732 6.66671C2.12755 6.66671 2.50065 6.29361 2.50065 5.83337V3.67856L8.82215 10L2.50065 16.3215V14.1667C2.50065 13.7065 2.12755 13.3334 1.66732 13.3334C1.20708 13.3334 0.833984 13.7065 0.833984 14.1667V17.5C0.833984 18.4205 1.58018 19.1667 2.50065 19.1667H5.83398C6.29422 19.1667 6.66732 18.7936 6.66732 18.3334C6.66732 17.8731 6.29422 17.5 5.83398 17.5H3.67916L10.0007 11.1785L16.3221 17.5H14.1673C13.7071 17.5 13.334 17.8731 13.334 18.3334C13.334 18.7936 13.7071 19.1667 14.1673 19.1667H17.5006C18.4211 19.1667 19.1673 18.4205 19.1673 17.5V14.1667C19.1673 13.7065 18.7942 13.3334 18.334 13.3334C17.8737 13.3334 17.5006 13.7065 17.5006 14.1667V16.3215Z" fill="#6F767E"/>
<path d="M14.1094 1L15.7607 4.02024L17.4386 1H19.4787L17.0124 5.09091L19.5213 9.18182H17.4918L15.7607 6.23615L14.0455 9.18182H12L14.4929 5.09091L12.0639 1H14.1094Z" fill="#6F767E"/>
</g>
<defs>
<clipPath id="clip0_162_6522">
<rect width="20" height="20" fill="white"/>
</clipPath>
</defs>
</svg>
