<svg width="20" height="20" viewBox="0 0 20 20" fill="none" xmlns="http://www.w3.org/2000/svg">
<g clip-path="url(#clip0_162_6517)">
<path d="M17.5006 16.3215L11.1791 10L10.0007 8.82154L3.67916 2.50004H5.83398C6.29422 2.50004 6.66732 2.12694 6.66732 1.66671C6.66732 1.20647 6.29422 0.833374 5.83398 0.833374H2.50065C1.58018 0.833374 0.833984 1.57957 0.833984 2.50004V5.83337C0.833984 6.29361 1.20708 6.66671 1.66732 6.66671C2.12755 6.66671 2.50065 6.29361 2.50065 5.83337V3.67856L8.82215 10L2.50065 16.3215V14.1667C2.50065 13.7065 2.12755 13.3334 1.66732 13.3334C1.20708 13.3334 0.833984 13.7065 0.833984 14.1667V17.5C0.833984 18.4205 1.58018 19.1667 2.50065 19.1667H5.83398C6.29422 19.1667 6.66732 18.7936 6.66732 18.3334C6.66732 17.8731 6.29422 17.5 5.83398 17.5H3.67916L10.0007 11.1785L16.3221 17.5H14.1673C13.7071 17.5 13.334 17.8731 13.334 18.3334C13.334 18.7936 13.7071 19.1667 14.1673 19.1667H17.5006C18.4211 19.1667 19.1673 18.4205 19.1673 17.5V14.1667C19.1673 13.7065 18.7942 13.3334 18.334 13.3334C17.8737 13.3334 17.5006 13.7065 17.5006 14.1667V16.3215Z" fill="#6F767E"/>
<path d="M13.3936 10C13.1954 10 13.012 9.98295 12.8434 9.94886C12.6774 9.91761 12.5448 9.88068 12.4458 9.83807L12.7831 8.63636C12.9946 8.7017 13.1834 8.73295 13.3494 8.73011C13.5154 8.72727 13.6613 8.67188 13.7871 8.56392C13.9157 8.45881 14.0241 8.28267 14.1124 8.03551L14.2369 7.68182L12 1H13.5422L14.9639 5.94318H15.0281L16.4538 1H18L15.5301 8.33807C15.415 8.68466 15.2624 8.98153 15.0723 9.22869C14.8822 9.47869 14.6493 9.66903 14.3735 9.79972C14.1004 9.93324 13.7738 10 13.3936 10Z" fill="#6F767E"/>
</g>
<defs>
<clipPath id="clip0_162_6517">
<rect width="20" height="20" fill="white"/>
</clipPath>
</defs>
</svg>
