<svg width="24" height="24" viewBox="0 0 24 24" fill="none" xmlns="http://www.w3.org/2000/svg">
<g clip-path="url(#clip0_450_5400)">
<path d="M18.7558 9.36047C18.8285 8.94772 18.8667 8.52273 18.8667 8.08868C18.8667 4.17997 15.7863 1 12 1C8.21368 1 5.13329 4.17997 5.13329 8.08868C5.13329 8.52273 5.17149 8.94776 5.2442 9.36047C2.75527 10.4263 1 12.961 1 15.9114C1 19.82 4.08039 23 7.86671 23C9.41612 23 10.8471 22.4673 11.9973 21.5703C13.1957 22.5061 14.6228 23 16.1333 23C19.9196 23 23 19.82 23 15.9114C23 12.961 21.2447 10.4263 18.7558 9.36047ZM5.77782 8.08868C5.77782 4.54685 8.56907 1.66537 12 1.66537C15.4309 1.66537 18.2222 4.54685 18.2222 8.08868C18.2222 8.44381 18.1936 8.79211 18.1397 9.13171C17.5048 8.93108 16.8311 8.82272 16.1333 8.82272C12.9948 8.82272 10.3414 11.0077 9.52539 13.9815C7.81295 13.2121 6.4988 11.6701 5.9983 9.78413C6.58834 9.59197 7.21599 9.48808 7.86671 9.48808C8.82667 9.48808 9.74706 9.70757 10.6023 10.1405C10.762 10.2213 10.9551 10.1532 11.0335 9.98822C11.1119 9.82325 11.0458 9.62395 10.886 9.54304C9.94175 9.06509 8.92593 8.82272 7.86675 8.82272C7.16898 8.82272 6.49532 8.93104 5.86037 9.13171C5.80636 8.79211 5.77782 8.44381 5.77782 8.08868ZM12.0024 11.1125C12.9119 11.9482 13.554 13.0277 13.8685 14.2159C13.2784 14.4081 12.6508 14.512 12 14.512C11.3492 14.512 10.7216 14.4081 10.1315 14.2159C10.4542 13.0003 11.1148 11.9276 12.0024 11.1125ZM12.5116 10.6914C13.5325 9.93446 14.7833 9.48808 16.1333 9.48808C16.7841 9.48808 17.4117 9.59197 18.0017 9.78413C17.5012 11.6701 16.1871 13.2122 14.4746 13.9815C14.1318 12.7289 13.4577 11.5887 12.5116 10.6914ZM1.64453 15.9114C1.64453 13.277 3.18896 11.0083 5.39201 10.0186C5.96671 12.1127 7.4527 13.8154 9.37753 14.6396C9.30483 15.0523 9.26663 15.4773 9.26663 15.9114C9.26663 17.5176 9.77418 19.0324 10.7344 20.2919C10.8444 20.4363 11.0471 20.4612 11.1869 20.3476C11.3268 20.2339 11.3509 20.0248 11.2408 19.8804C10.371 18.7393 9.91116 17.3669 9.91116 15.9113C9.91116 15.5562 9.93969 15.2079 9.99362 14.8683C10.6286 15.0689 11.3022 15.1772 12 15.1772C12.6978 15.1772 13.3716 15.0689 14.0066 14.8682C14.0609 15.2103 14.0888 15.5589 14.0888 15.9113C14.0888 19.4531 11.2976 22.3345 7.86671 22.3345C4.43578 22.3347 1.64453 19.4532 1.64453 15.9114ZM16.1333 22.3347C14.8151 22.3347 13.5671 21.9196 12.5069 21.1317C13.8746 19.8351 14.7333 17.9749 14.7333 15.9114C14.7333 15.4811 14.6951 15.0559 14.6219 14.6398C16.547 13.8157 18.0332 12.113 18.608 10.0186C20.811 11.0084 22.3555 13.277 22.3555 15.9114C22.3555 19.4532 19.5642 22.3347 16.1333 22.3347Z" fill="white" stroke="white" stroke-width="0.4"/>
<path d="M19.3524 16.7687C19.5372 16.581 19.6496 16.3359 19.6496 16.068C19.6496 15.4791 19.1081 15 18.4426 15H17.309C17.1384 15 17 15.1224 17 15.2735V18.7265C17 18.7993 17.0328 18.869 17.091 18.9203C17.1489 18.9714 17.2273 19 17.309 19H17.3104C17.3208 19 18.3568 18.9959 18.6405 18.9959C19.3901 18.9959 20 18.4563 20 17.793C20 17.3605 19.7406 16.9807 19.3524 16.7687ZM18.4426 15.5469C18.7673 15.5469 19.0315 15.7807 19.0315 16.068C19.0315 16.3553 18.7673 16.5891 18.4426 16.5891C18.3586 16.5891 17.6181 16.59 17.6181 16.59V15.5468H18.4426V15.5469ZM18.6405 18.449C18.4549 18.449 17.9504 18.4507 17.6181 18.4519V17.1384C17.7433 17.1379 18.6405 17.137 18.6405 17.137C19.0493 17.137 19.3819 17.4313 19.3819 17.793C19.3819 18.1547 19.0493 18.449 18.6405 18.449Z" fill="white" stroke="white" stroke-width="0.4"/>
<path d="M7.70943 16.7266H6.61163C6.45114 16.7266 6.32102 16.849 6.32102 17C6.32102 17.1511 6.45114 17.2735 6.61163 17.2735H7.40239C7.29398 18.1381 6.66832 18.4531 6.12546 18.4531C5.27395 18.4531 4.58122 17.8013 4.58122 17C4.58122 16.1988 5.27395 15.5469 6.12546 15.5469C6.43494 15.5469 6.73345 15.6327 6.98865 15.7949C7.12167 15.8795 7.30227 15.8466 7.39217 15.7214C7.48198 15.5963 7.44703 15.4263 7.31405 15.3417C6.96238 15.1182 6.55138 15 6.12546 15C4.95346 15 4 15.8972 4 17C4 18.1028 4.95346 19 6.12546 19C7.22915 19 8 18.1776 8 17C8.00004 16.849 7.86992 16.7266 7.70943 16.7266Z" fill="white" stroke="white" stroke-width="0.4"/>
<path d="M11.3399 8C11.5275 8 11.6797 7.87757 11.6797 7.72655V6.34424C11.6848 6.3442 11.6901 6.3442 11.6953 6.34417L13.405 7.90721C13.4722 7.96864 13.566 8 13.6603 8C13.74 8 13.8201 7.97754 13.8847 7.93182C14.0256 7.83207 14.0393 7.65925 13.9153 7.54589L12.5942 6.33822C13.379 6.29363 14 5.78731 14 5.17092C14 4.52529 13.3189 4.00004 12.4817 4.00004H11.3413C11.1577 3.99731 10.9995 4.12641 11 4.27349V7.72655C11 7.8776 11.1522 8 11.3399 8ZM12.4817 4.54694C12.9363 4.54694 13.3203 4.83268 13.3203 5.17092C13.3203 5.50916 12.9363 5.7949 12.4817 5.7949C12.2997 5.7949 11.9503 5.79621 11.687 5.79734C11.6856 5.58842 11.683 4.76439 11.6822 4.54698L12.4817 4.54694Z" fill="white" stroke="white" stroke-width="0.4"/>
</g>
<defs>
<clipPath id="clip0_450_5400">
<rect width="24" height="24" fill="white"/>
</clipPath>
</defs>
</svg>
