<svg width="24" height="24" viewBox="0 0 24 24" fill="none" xmlns="http://www.w3.org/2000/svg">
<g clip-path="url(#clip0_450_5375)">
<path d="M23.2969 0H0.703125C0.314812 0 0 0.314812 0 0.703125V23.2969C0 23.6852 0.314812 24 0.703125 24H23.2969C23.6852 24 24 23.6852 24 23.2969V0.703125C24 0.314812 23.6852 0 23.2969 0ZM22.5938 22.5938H1.40625V1.40625H22.5938V22.5938Z" fill="white"/>
<path d="M18.7972 11.2208L18.7972 4.28919L19.5856 5.07763C19.8602 5.3522 20.3054 5.3522 20.58 5.07763C20.8546 4.80305 20.8546 4.35784 20.58 4.08326L18.5913 2.09452C18.3167 1.81994 17.8715 1.81994 17.5969 2.09452L15.6081 4.08326C15.3336 4.35784 15.3336 4.80305 15.6081 5.07763C15.8827 5.3522 16.3279 5.3522 16.6025 5.07763L17.391 4.28919L17.391 11.2208C17.391 11.6092 17.7058 11.9239 18.0941 11.9239C18.4824 11.9239 18.7972 11.6091 18.7972 11.2208Z" fill="white"/>
<path d="M3.42033 5.0777C3.69491 5.35228 4.14012 5.35228 4.4147 5.0777L5.20313 4.28927L5.20317 11.2209C5.20317 11.6092 5.51795 11.924 5.90628 11.924C6.29462 11.924 6.6094 11.6092 6.6094 11.2209L6.60937 4.28927L7.3978 5.0777C7.67238 5.35228 8.11759 5.35228 8.39217 5.0777C8.66675 4.80312 8.66675 4.35791 8.39217 4.08333L6.40343 2.0946C6.12886 1.82002 5.68364 1.82002 5.40907 2.0946L3.42033 4.08333C3.14575 4.35791 3.14575 4.80312 3.42033 5.0777Z" fill="white"/>
</g>
<defs>
<clipPath id="clip0_450_5375">
<rect width="24" height="24" fill="white"/>
</clipPath>
</defs>
</svg>
