<svg width="24" height="24" viewBox="0 0 24 24" fill="none" xmlns="http://www.w3.org/2000/svg">
<path d="M18 3.25H6C4.89543 3.25 4 4.14543 4 5.25V6.42157C4 6.95201 4.21071 7.46071 4.58579 7.83579L9.41421 12.6642C9.78929 13.0393 10 13.548 10 14.0784V19.307C10 20.0052 10.6974 20.4885 11.3511 20.2433L13.3511 19.4933C13.7414 19.347 14 18.9738 14 18.557V14.0784C14 13.548 14.2107 13.0393 14.5858 12.6642L19.4142 7.83579C19.7893 7.46071 20 6.95201 20 6.42157V5.25C20 4.14543 19.1046 3.25 18 3.25Z" stroke="#6F767E" stroke-width="2" stroke-linejoin="round"/>
</svg>
