<svg width="24" height="24" viewBox="0 0 24 24" fill="none" xmlns="http://www.w3.org/2000/svg">
<g clip-path="url(#clip0_450_5341)">
<path d="M22.5 11.4378H11.9738C11.843 10.7448 11.4742 10.1192 10.9313 9.66915C10.3883 9.21908 9.70524 8.97278 9 8.97278C8.29476 8.97278 7.61167 9.21908 7.06872 9.66915C6.52576 10.1192 6.15704 10.7448 6.02625 11.4378H1.5C1.35082 11.4378 1.20774 11.497 1.10225 11.6025C0.996763 11.708 0.9375 11.8511 0.9375 12.0003C0.9375 12.1495 0.996763 12.2925 1.10225 12.398C1.20774 12.5035 1.35082 12.5628 1.5 12.5628H6.02625C6.15704 13.2558 6.52576 13.8813 7.06872 14.3314C7.61167 14.7815 8.29476 15.0278 9 15.0278C9.70524 15.0278 10.3883 14.7815 10.9313 14.3314C11.4742 13.8813 11.843 13.2558 11.9738 12.5628H22.5C22.6492 12.5628 22.7923 12.5035 22.8977 12.398C23.0032 12.2925 23.0625 12.1495 23.0625 12.0003C23.0625 11.8511 23.0032 11.708 22.8977 11.6025C22.7923 11.497 22.6492 11.4378 22.5 11.4378ZM9 13.9015C8.62397 13.9015 8.25638 13.79 7.94372 13.5811C7.63106 13.3722 7.38738 13.0753 7.24347 12.7279C7.09957 12.3804 7.06192 11.9982 7.13528 11.6294C7.20864 11.2606 7.38972 10.9218 7.65561 10.6559C7.92151 10.39 8.26028 10.2089 8.62908 10.1356C8.99789 10.0622 9.38017 10.0999 9.72758 10.2438C10.075 10.3877 10.3719 10.6313 10.5808 10.944C10.7897 11.2567 10.9012 11.6242 10.9012 12.0003C10.9012 12.5045 10.7009 12.9881 10.3444 13.3447C9.98783 13.7012 9.50424 13.9015 9 13.9015Z" fill="white"/>
<path d="M1.5 4.52652H13.56C13.6908 5.21953 14.0595 5.84509 14.6025 6.29515C15.1454 6.74522 15.8285 6.99153 16.5338 6.99153C17.239 6.99153 17.9221 6.74522 18.465 6.29515C19.008 5.84509 19.3767 5.21953 19.5075 4.52652H22.5075C22.6567 4.52652 22.7998 4.46726 22.9052 4.36177C23.0107 4.25628 23.07 4.11321 23.07 3.96402C23.07 3.81484 23.0107 3.67177 22.9052 3.56628C22.7998 3.46079 22.6567 3.40152 22.5075 3.40152H19.5C19.3692 2.70852 19.0005 2.08296 18.4575 1.63289C17.9146 1.18283 17.2315 0.936523 16.5262 0.936523C15.821 0.936523 15.1379 1.18283 14.595 1.63289C14.052 2.08296 13.6833 2.70852 13.5525 3.40152H1.5C1.35082 3.40152 1.20774 3.46079 1.10225 3.56628C0.996763 3.67177 0.9375 3.81484 0.9375 3.96402C0.9375 4.11321 0.996763 4.25628 1.10225 4.36177C1.20774 4.46726 1.35082 4.52652 1.5 4.52652ZM16.5338 2.06277C16.9095 2.06426 17.2763 2.17702 17.588 2.38683C17.8996 2.59664 18.1422 2.89409 18.2849 3.24163C18.4277 3.58917 18.4643 3.97121 18.39 4.33952C18.3158 4.70783 18.1342 5.0459 17.868 5.31104C17.6018 5.57619 17.263 5.75652 16.8944 5.82927C16.5258 5.90203 16.1439 5.86394 15.797 5.71982C15.45 5.5757 15.1535 5.33201 14.9449 5.01952C14.7363 4.70702 14.625 4.33974 14.625 3.96402C14.6255 3.71386 14.6753 3.46623 14.7714 3.2353C14.8676 3.00436 15.0084 2.79463 15.1856 2.61808C15.3629 2.44154 15.5731 2.30163 15.8045 2.20635C16.0358 2.11107 16.2836 2.06228 16.5338 2.06277Z" fill="white"/>
<path d="M22.5 19.474H19.5C19.3692 18.781 19.0005 18.1555 18.4575 17.7054C17.9146 17.2553 17.2315 17.009 16.5262 17.009C15.821 17.009 15.1379 17.2553 14.595 17.7054C14.052 18.1555 13.6833 18.781 13.5525 19.474H1.5C1.35082 19.474 1.20774 19.5333 1.10225 19.6388C0.996763 19.7443 0.9375 19.8874 0.9375 20.0365C0.9375 20.1857 0.996763 20.3288 1.10225 20.4343C1.20774 20.5398 1.35082 20.599 1.5 20.599H13.56C13.6908 21.292 14.0595 21.9176 14.6025 22.3677C15.1454 22.8177 15.8285 23.064 16.5338 23.064C17.239 23.064 17.9221 22.8177 18.465 22.3677C19.008 21.9176 19.3767 21.292 19.5075 20.599H22.5075C22.6567 20.599 22.7998 20.5398 22.9052 20.4343C23.0107 20.3288 23.07 20.1857 23.07 20.0365C23.07 19.8874 23.0107 19.7443 22.9052 19.6388C22.7998 19.5333 22.6567 19.474 22.5075 19.474H22.5ZM16.5338 21.9378C16.1577 21.9378 15.7901 21.8263 15.4775 21.6174C15.1648 21.4085 14.9211 21.1115 14.7772 20.7641C14.6333 20.4167 14.5957 20.0344 14.669 19.6656C14.7424 19.2968 14.9235 18.958 15.1894 18.6921C15.4553 18.4263 15.794 18.2452 16.1628 18.1718C16.5316 18.0985 16.9139 18.1361 17.2613 18.28C17.6087 18.4239 17.9057 18.6676 18.1146 18.9803C18.3235 19.2929 18.435 19.6605 18.435 20.0365C18.434 20.5405 18.2334 21.0235 17.877 21.3798C17.5207 21.7362 17.0377 21.9368 16.5338 21.9378Z" fill="white"/>
</g>
<defs>
<clipPath id="clip0_450_5341">
<rect width="24" height="24" fill="white"/>
</clipPath>
</defs>
</svg>
