<svg width="24" height="24" viewBox="0 0 24 24" fill="none" xmlns="http://www.w3.org/2000/svg">
<g clip-path="url(#clip0_450_5388)">
<path d="M23.2969 0H0.703125C0.314812 0 0 0.314812 0 0.703125V23.2969C0 23.6852 0.314812 24 0.703125 24H23.2969C23.6852 24 24 23.6852 24 23.2969V0.703125C24 0.314812 23.6852 0 23.2969 0ZM22.5938 22.5938H1.40625V1.40625H22.5938V22.5938Z" fill="white"/>
<path d="M19.9403 3.06534L16.4531 6.55252V5.4375C16.4531 5.04919 16.1383 4.73437 15.75 4.73437C15.3617 4.73437 15.0469 5.04919 15.0469 5.4375V8.25C15.0469 8.63831 15.3617 8.95312 15.75 8.95312H18.5625C18.9508 8.95312 19.2656 8.63831 19.2656 8.25C19.2656 7.86169 18.9508 7.54688 18.5625 7.54688H17.4475L20.9347 4.05966C21.2093 3.78506 21.2093 3.33989 20.9347 3.0653C20.6601 2.79075 20.2149 2.79075 19.9403 3.06534Z" fill="white"/>
<path d="M8.25 4.73438C7.86169 4.73438 7.54688 5.04919 7.54688 5.4375V6.55252L4.05966 3.06534C3.78506 2.79075 3.33989 2.79075 3.0653 3.06534C2.7907 3.33994 2.7907 3.78511 3.0653 4.0597L6.55252 7.54688H5.4375C5.04919 7.54688 4.73438 7.86169 4.73438 8.25C4.73438 8.63831 5.04919 8.95312 5.4375 8.95312H8.25C8.63831 8.95312 8.95312 8.63831 8.95312 8.25V5.4375C8.95312 5.04919 8.63831 4.73438 8.25 4.73438Z" fill="white"/>
<path d="M17.4475 16.4531H18.5625C18.9508 16.4531 19.2656 16.1383 19.2656 15.75C19.2656 15.3617 18.9508 15.0469 18.5625 15.0469H15.75C15.3617 15.0469 15.0469 15.3617 15.0469 15.75V18.5625C15.0469 18.9508 15.3617 19.2656 15.75 19.2656C16.1383 19.2656 16.4531 18.9508 16.4531 18.5625V17.4475L19.9403 20.9347C20.2149 21.2093 20.6601 21.2093 20.9347 20.9347C21.2093 20.6601 21.2093 20.2149 20.9347 19.9403L17.4475 16.4531Z" fill="white"/>
<path d="M8.25 15.0469H5.4375C5.04919 15.0469 4.73438 15.3617 4.73438 15.75C4.73438 16.1383 5.04919 16.4531 5.4375 16.4531H6.55252L3.06534 19.9403C2.79075 20.2149 2.79075 20.6601 3.06534 20.9347C3.33994 21.2093 3.78511 21.2093 4.0597 20.9347L7.54688 17.4475V18.5625C7.54688 18.9508 7.86169 19.2656 8.25 19.2656C8.63831 19.2656 8.95312 18.9508 8.95312 18.5625V15.75C8.95312 15.3617 8.63831 15.0469 8.25 15.0469Z" fill="white"/>
</g>
<defs>
<clipPath id="clip0_450_5388">
<rect width="24" height="24" fill="white"/>
</clipPath>
</defs>
</svg>
