<svg width="20" height="20" viewBox="0 0 20 20" fill="none" xmlns="http://www.w3.org/2000/svg">
<path d="M9.16602 7.5C9.16602 8.19036 8.60637 8.75 7.91602 8.75C7.22566 8.75 6.66602 8.19036 6.66602 7.5C6.66602 6.80964 7.22566 6.25 7.91602 6.25C8.60637 6.25 9.16602 6.80964 9.16602 7.5Z" fill="#6F767E"/>
<path d="M13.3327 7.5C13.3327 8.19036 12.773 8.75 12.0827 8.75C11.3923 8.75 10.8327 8.19036 10.8327 7.5C10.8327 6.80964 11.3923 6.25 12.0827 6.25C12.773 6.25 13.3327 6.80964 13.3327 7.5Z" fill="#6F767E"/>
<path d="M5.49215 10.8333C5.88403 12.9668 7.75318 14.5833 9.99991 14.5833C12.2466 14.5833 14.1158 12.9668 14.5077 10.8333M17.5 10C17.5 14.1421 14.1421 17.5 10 17.5C5.85786 17.5 2.5 14.1421 2.5 10C2.5 5.85786 5.85786 2.5 10 2.5C14.1421 2.5 17.5 5.85786 17.5 10Z" stroke="#6F767E" stroke-width="2" stroke-linecap="round"/>
</svg>
