<svg width="24" height="24" viewBox="0 0 24 24" fill="none" xmlns="http://www.w3.org/2000/svg">
<path d="M4.00039 24H20.0004C20.884 24 21.6004 23.2837 21.6004 22.4V3.5316C21.6 3.36626 21.5653 3.20281 21.4984 3.0516C21.4952 3.0432 21.49 3.0364 21.486 3.028C21.4277 2.90006 21.3474 2.78335 21.2488 2.6832L18.9176 0.351601C18.8171 0.251755 18.6997 0.1705 18.5708 0.111601C18.5636 0.108401 18.5576 0.103601 18.55 0.100801C18.3985 0.0341484 18.2347 -0.000182018 18.0692 7.2575e-07L4.00039 1.74994e-09C3.11673 7.2575e-07 2.40039 0.716345 2.40039 1.6V22.4C2.40039 23.2837 3.11673 24 4.00039 24ZM20.2348 2.8H19.6004C19.1586 2.8 18.8004 2.44183 18.8004 2V1.3656L20.2348 2.8ZM3.20039 1.6C3.20039 1.15817 3.55856 0.800001 4.00039 0.800001H18.0004V2C18.0004 2.88366 18.7167 3.6 19.6004 3.6H20.8004V22.4C20.8004 22.8418 20.4422 23.2 20.0004 23.2H4.00039C3.55856 23.2 3.20039 22.8418 3.20039 22.4V1.6Z" fill="white"/>
<path d="M6.00078 9.19997H8.40078C9.06352 9.19997 9.60078 8.66271 9.60078 7.99997V5.76557L10.6836 4.68277C10.8352 4.52582 10.833 4.27633 10.6787 4.12204C10.5244 3.96775 10.2749 3.96558 10.118 4.11717L9.35478 4.87997C9.13005 4.57874 8.7766 4.40091 8.40078 4.39997H6.00078C5.33804 4.39997 4.80078 4.93723 4.80078 5.59997V7.99997C4.80078 8.66271 5.33804 9.19997 6.00078 9.19997ZM5.60078 5.59997C5.60078 5.37905 5.77987 5.19997 6.00078 5.19997H8.40078C8.56754 5.20077 8.71608 5.30554 8.77278 5.46237L7.60078 6.63437L7.08358 6.11717C6.92663 5.96558 6.67715 5.96775 6.52285 6.12204C6.36856 6.27633 6.36639 6.52582 6.51798 6.68277L7.31798 7.48277C7.47418 7.63892 7.72738 7.63892 7.88358 7.48277L8.80078 6.56557V7.99997C8.80078 8.22088 8.6217 8.39997 8.40078 8.39997H6.00078C5.77987 8.39997 5.60078 8.22088 5.60078 7.99997V5.59997Z" fill="white"/>
<path d="M6.00078 14.8H8.40078C9.06352 14.8 9.60078 14.2627 9.60078 13.6V11.2C9.60078 10.5373 9.06352 10 8.40078 10H6.00078C5.33804 10 4.80078 10.5373 4.80078 11.2V13.6C4.80078 14.2627 5.33804 14.8 6.00078 14.8ZM5.60078 11.2C5.60078 10.9791 5.77987 10.8 6.00078 10.8H8.40078C8.6217 10.8 8.80078 10.9791 8.80078 11.2V13.6C8.80078 13.8209 8.6217 14 8.40078 14H6.00078C5.77987 14 5.60078 13.8209 5.60078 13.6V11.2Z" fill="white"/>
<path d="M6.00078 20.3996H8.40078C9.06352 20.3996 9.60078 19.8624 9.60078 19.1996V16.7996C9.60078 16.1369 9.06352 15.5996 8.40078 15.5996H6.00078C5.33804 15.5996 4.80078 16.1369 4.80078 16.7996V19.1996C4.80078 19.8624 5.33804 20.3996 6.00078 20.3996ZM5.60078 16.7996C5.60078 16.5787 5.77987 16.3996 6.00078 16.3996H8.40078C8.6217 16.3996 8.80078 16.5787 8.80078 16.7996V19.1996C8.80078 19.4205 8.6217 19.5996 8.40078 19.5996H6.00078C5.77987 19.5996 5.60078 19.4205 5.60078 19.1996V16.7996Z" fill="white"/>
<path d="M12.0006 5.99995H18.8006C19.0215 5.99995 19.2006 5.82087 19.2006 5.59995C19.2006 5.37904 19.0215 5.19995 18.8006 5.19995H12.0006C11.7797 5.19995 11.6006 5.37904 11.6006 5.59995C11.6006 5.82087 11.7797 5.99995 12.0006 5.99995Z" fill="white"/>
<path d="M12.0006 7.99995H16.0006C16.2215 7.99995 16.4006 7.82087 16.4006 7.59995C16.4006 7.37904 16.2215 7.19995 16.0006 7.19995H12.0006C11.7797 7.19995 11.6006 7.37904 11.6006 7.59995C11.6006 7.82087 11.7797 7.99995 12.0006 7.99995Z" fill="white"/>
<path d="M12.0006 11.6H18.8006C19.0215 11.6 19.2006 11.421 19.2006 11.2C19.2006 10.9791 19.0215 10.8 18.8006 10.8H12.0006C11.7797 10.8 11.6006 10.9791 11.6006 11.2C11.6006 11.421 11.7797 11.6 12.0006 11.6Z" fill="white"/>
<path d="M12.0006 13.6H16.0006C16.2215 13.6 16.4006 13.421 16.4006 13.2C16.4006 12.9791 16.2215 12.8 16.0006 12.8H12.0006C11.7797 12.8 11.6006 12.9791 11.6006 13.2C11.6006 13.421 11.7797 13.6 12.0006 13.6Z" fill="white"/>
<path d="M12.0006 17.2004H18.8006C19.0215 17.2004 19.2006 17.0213 19.2006 16.8004C19.2006 16.5795 19.0215 16.4004 18.8006 16.4004H12.0006C11.7797 16.4004 11.6006 16.5795 11.6006 16.8004C11.6006 17.0213 11.7797 17.2004 12.0006 17.2004Z" fill="white"/>
<path d="M12.0006 19.2004H16.0006C16.2215 19.2004 16.4006 19.0213 16.4006 18.8004C16.4006 18.5795 16.2215 18.4004 16.0006 18.4004H12.0006C11.7797 18.4004 11.6006 18.5795 11.6006 18.8004C11.6006 19.0213 11.7797 19.2004 12.0006 19.2004Z" fill="white"/>
</svg>
