<svg width="24" height="24" viewBox="0 0 24 24" fill="none" xmlns="http://www.w3.org/2000/svg">
<path d="M17.625 9.00098C17.625 9.73966 17.4795 10.4711 17.1968 11.1536C16.9141 11.8361 16.4998 12.4561 15.9775 12.9785C15.4551 13.5008 14.8351 13.9152 14.1526 14.1979C13.4701 14.4805 12.7387 14.626 12 14.626C11.2613 14.626 10.5299 14.4805 9.8474 14.1979C9.16494 13.9152 8.54485 13.5008 8.02252 12.9785C7.50019 12.4561 7.08586 11.8361 6.80317 11.1536C6.52049 10.4711 6.375 9.73966 6.375 9.00098C6.375 8.26229 6.52049 7.53089 6.80317 6.84843C7.08586 6.16598 7.50019 5.54582 8.02252 5.02349C8.54485 4.50116 9.16494 4.08687 9.8474 3.80418C10.5299 3.5215 11.2613 3.37598 12 3.37598C12.7387 3.37598 13.4701 3.5215 14.1526 3.80418C14.8351 4.08687 15.4551 4.50116 15.9775 5.02349C16.4998 5.54582 16.9141 6.16598 17.1968 6.84843C17.4795 7.53089 17.625 8.26229 17.625 9.00098Z" stroke="white" stroke-width="1.00157" stroke-linecap="round" stroke-linejoin="round"/>
<path d="M21.375 15.001C21.375 16.4928 20.7824 17.9236 19.7275 18.9785C18.6726 20.0333 17.2418 20.626 15.75 20.626C14.2582 20.626 12.8274 20.0333 11.7725 18.9785C10.7176 17.9236 10.125 16.4928 10.125 15.001C10.125 14.2623 10.2705 13.5309 10.5532 12.8484C10.8359 12.166 11.2502 11.5458 11.7725 11.0235C12.2948 10.5012 12.9149 10.0869 13.5974 9.80418C14.2799 9.5215 15.0113 9.37598 15.75 9.37598C16.4887 9.37598 17.2201 9.5215 17.9026 9.80418C18.5851 10.0869 19.2052 10.5012 19.7275 11.0235C20.2498 11.5458 20.6641 12.166 20.9468 12.8484C21.2295 13.5309 21.375 14.2623 21.375 15.001Z" stroke="white" stroke-width="1.00157" stroke-linecap="round" stroke-linejoin="round"/>
<path d="M13.875 15.001C13.875 16.4928 13.2824 17.9236 12.2275 18.9785C11.1726 20.0333 9.74184 20.626 8.25 20.626C6.75816 20.626 5.32742 20.0333 4.27253 18.9785C3.21764 17.9236 2.625 16.4928 2.625 15.001C2.625 14.2623 2.77049 13.5309 3.05317 12.8484C3.33586 12.166 3.75019 11.5458 4.27252 11.0235C4.79485 10.5012 5.41495 10.0869 6.0974 9.80418C6.77986 9.5215 7.51131 9.37598 8.25 9.37598C8.98869 9.37598 9.72014 9.5215 10.4026 9.80418C11.0851 10.0869 11.7052 10.5012 12.2275 11.0235C12.7498 11.5458 13.1641 12.166 13.4468 12.8484C13.7295 13.5309 13.875 14.2623 13.875 15.001Z" stroke="white" stroke-width="1.00157" stroke-linecap="round" stroke-linejoin="round"/>
</svg>
