<svg width="48" height="48" viewBox="0 0 48 48" fill="none" xmlns="http://www.w3.org/2000/svg">
<g clip-path="url(#clip0_24_2092)">
<g filter="url(#filter0_ii_24_2092)">
<path d="M20.9385 1.2681C22.8988 0.456151 25.1012 0.45615 27.0615 1.2681L37.9091 5.76134C39.8693 6.57329 41.4267 8.13068 42.2387 10.0909L46.7319 20.9385C47.5438 22.8988 47.5438 25.1012 46.7319 27.0615L42.2387 37.9091C41.4267 39.8693 39.8693 41.4267 37.9091 42.2387L27.0615 46.7319C25.1012 47.5438 22.8988 47.5438 20.9385 46.7319L10.0909 42.2387C8.13068 41.4267 6.57329 39.8693 5.76134 37.9091L1.2681 27.0615C0.456151 25.1012 0.45615 22.8988 1.2681 20.9385L5.76134 10.0909C6.57329 8.13068 8.13068 6.57329 10.0909 5.76134L20.9385 1.2681Z" fill="#FCFCFC"/>
</g>
<rect width="4" height="8" rx="2" transform="matrix(0.00309291 -0.999995 -0.999995 -0.00309291 27.9691 34.0123)" fill="url(#paint0_linear_24_2092)"/>
<rect width="4" height="12" rx="2" transform="matrix(0.00309291 -0.999995 -0.999995 -0.00309291 29.9938 26.0186)" fill="#1A1D1F"/>
<rect width="4" height="8" rx="2" transform="matrix(0.00309291 -0.999995 -0.999995 -0.00309291 28.0186 18.0125)" fill="url(#paint1_linear_24_2092)"/>
</g>
<defs>
<filter id="filter0_ii_24_2092" x="0.659149" y="-0.34082" width="46.6817" height="48.6816" filterUnits="userSpaceOnUse" color-interpolation-filters="sRGB">
<feFlood flood-opacity="0" result="BackgroundImageFix"/>
<feBlend mode="normal" in="SourceGraphic" in2="BackgroundImageFix" result="shape"/>
<feColorMatrix in="SourceAlpha" type="matrix" values="0 0 0 0 0 0 0 0 0 0 0 0 0 0 0 0 0 0 127 0" result="hardAlpha"/>
<feOffset dy="-1"/>
<feGaussianBlur stdDeviation="1"/>
<feComposite in2="hardAlpha" operator="arithmetic" k2="-1" k3="1"/>
<feColorMatrix type="matrix" values="0 0 0 0 0 0 0 0 0 0 0 0 0 0 0 0 0 0 0.41 0"/>
<feBlend mode="multiply" in2="shape" result="effect1_innerShadow_24_2092"/>
<feColorMatrix in="SourceAlpha" type="matrix" values="0 0 0 0 0 0 0 0 0 0 0 0 0 0 0 0 0 0 127 0" result="hardAlpha"/>
<feOffset dy="1"/>
<feGaussianBlur stdDeviation="0.5"/>
<feComposite in2="hardAlpha" operator="arithmetic" k2="-1" k3="1"/>
<feColorMatrix type="matrix" values="0 0 0 0 1 0 0 0 0 1 0 0 0 0 1 0 0 0 1 0"/>
<feBlend mode="normal" in2="effect1_innerShadow_24_2092" result="effect2_innerShadow_24_2092"/>
</filter>
<linearGradient id="paint0_linear_24_2092" x1="2" y1="0" x2="2" y2="8" gradientUnits="userSpaceOnUse">
<stop stop-color="#1A1D1F" stop-opacity="0.75"/>
<stop offset="1" stop-color="#1A1D1F"/>
</linearGradient>
<linearGradient id="paint1_linear_24_2092" x1="2" y1="0" x2="2" y2="8" gradientUnits="userSpaceOnUse">
<stop stop-color="#1A1D1F" stop-opacity="0.75"/>
<stop offset="1" stop-color="#1A1D1F"/>
</linearGradient>
<clipPath id="clip0_24_2092">
<rect width="48" height="48" fill="white"/>
</clipPath>
</defs>
</svg>
