<svg width="209" height="60" viewBox="0 0 209 60" fill="none" xmlns="http://www.w3.org/2000/svg">
<g clip-path="url(#clip0_26_5010)">
<g filter="url(#filter0_ii_26_5010)">
<path d="M20.9385 7.2681C22.8988 6.45615 25.1012 6.45615 27.0615 7.2681L37.9091 11.7613C39.8693 12.5733 41.4267 14.1307 42.2387 16.0909L46.7319 26.9385C47.5438 28.8988 47.5438 31.1012 46.7319 33.0615L42.2387 43.9091C41.4267 45.8693 39.8693 47.4267 37.9091 48.2387L27.0615 52.7319C25.1012 53.5438 22.8988 53.5438 20.9385 52.7319L10.0909 48.2387C8.13068 47.4267 6.57329 45.8693 5.76134 43.9091L1.2681 33.0615C0.456151 31.1012 0.45615 28.8988 1.2681 26.9385L5.76134 16.0909C6.57329 14.1307 8.13068 12.5733 10.0909 11.7613L20.9385 7.2681Z" fill="#FCFCFC"/>
</g>
<rect width="4" height="8" rx="2" transform="matrix(0.00309291 -0.999995 -0.999995 -0.00309291 27.9691 40.0123)" fill="url(#paint0_linear_26_5010)"/>
<rect width="4" height="12" rx="2" transform="matrix(0.00309291 -0.999995 -0.999995 -0.00309291 29.9938 32.0186)" fill="#1A1D1F"/>
<rect width="4" height="8" rx="2" transform="matrix(0.00309291 -0.999995 -0.999995 -0.00309291 28.0186 24.0125)" fill="url(#paint1_linear_26_5010)"/>
</g>
<path d="M70.1923 40.56C68.2697 40.56 66.6177 40.2427 65.2363 39.608C63.855 38.9547 62.7257 38.1053 61.8483 37.06C60.971 36.0147 60.327 34.876 59.9163 33.644C59.5057 32.412 59.3003 31.208 59.3003 30.032V29.416C59.3003 28.1467 59.515 26.896 59.9443 25.664C60.3737 24.4133 61.0177 23.284 61.8763 22.276C62.7537 21.268 63.8457 20.4653 65.1523 19.868C66.459 19.252 67.9897 18.944 69.7443 18.944C71.6297 18.944 73.291 19.2893 74.7283 19.98C76.1843 20.6707 77.351 21.632 78.2283 22.864C79.1057 24.0773 79.619 25.4867 79.7683 27.092H74.5603C74.4483 26.476 74.1777 25.9253 73.7483 25.44C73.319 24.936 72.759 24.544 72.0683 24.264C71.3963 23.9653 70.6217 23.816 69.7443 23.816C68.9043 23.816 68.1577 23.9653 67.5043 24.264C66.8697 24.544 66.3283 24.9547 65.8803 25.496C65.451 26.0187 65.1243 26.644 64.9003 27.372C64.6763 28.1 64.5643 28.8933 64.5643 29.752C64.5643 30.6107 64.6857 31.4133 64.9283 32.16C65.171 32.888 65.5257 33.532 65.9923 34.092C66.459 34.6333 67.047 35.0533 67.7563 35.352C68.4657 35.6507 69.2777 35.8 70.1923 35.8C71.3497 35.8 72.3483 35.5573 73.1883 35.072C74.0283 34.5867 74.6163 33.9427 74.9523 33.14L74.5603 36.22V31.768H79.3203V35.968C78.4617 37.4427 77.239 38.5813 75.6523 39.384C74.0843 40.168 72.2643 40.56 70.1923 40.56ZM69.6323 32.776V29.136H81.0003V32.776H69.6323ZM90.6605 40.56C89.3539 40.56 88.1965 40.336 87.1885 39.888C86.1805 39.44 85.3312 38.8333 84.6405 38.068C83.9499 37.3027 83.4179 36.444 83.0445 35.492C82.6899 34.54 82.5125 33.56 82.5125 32.552V31.992C82.5125 30.9467 82.6899 29.948 83.0445 28.996C83.4179 28.0253 83.9405 27.1667 84.6125 26.42C85.3032 25.6733 86.1432 25.0853 87.1325 24.656C88.1219 24.208 89.2419 23.984 90.4925 23.984C92.1539 23.984 93.5632 24.3573 94.7205 25.104C95.8779 25.8507 96.7645 26.84 97.3805 28.072C97.9965 29.2853 98.3045 30.6107 98.3045 32.048V33.672H84.6405V30.928H95.3645L93.6005 32.16C93.6005 31.2827 93.4792 30.5453 93.2365 29.948C93.0125 29.332 92.6672 28.8653 92.2005 28.548C91.7525 28.2307 91.1832 28.072 90.4925 28.072C89.8205 28.072 89.2325 28.2307 88.7285 28.548C88.2432 28.8467 87.8699 29.3133 87.6085 29.948C87.3472 30.564 87.2165 31.348 87.2165 32.3C87.2165 33.1587 87.3379 33.9053 87.5805 34.54C87.8232 35.156 88.1965 35.632 88.7005 35.968C89.2045 36.304 89.8579 36.472 90.6605 36.472C91.3699 36.472 91.9485 36.3507 92.3965 36.108C92.8632 35.8653 93.1899 35.5387 93.3765 35.128H98.0245C97.8005 36.1733 97.3525 37.1067 96.6805 37.928C96.0272 38.7493 95.1872 39.3933 94.1605 39.86C93.1525 40.3267 91.9859 40.56 90.6605 40.56ZM108.691 40.56C107.328 40.56 106.115 40.3547 105.051 39.944C103.987 39.5333 103.081 38.964 102.335 38.236C101.607 37.508 101.047 36.668 100.655 35.716C100.281 34.764 100.095 33.7467 100.095 32.664V31.992C100.095 30.872 100.291 29.8267 100.683 28.856C101.093 27.8853 101.672 27.036 102.419 26.308C103.165 25.58 104.071 25.0107 105.135 24.6C106.199 24.1893 107.384 23.984 108.691 23.984C110.016 23.984 111.201 24.1893 112.247 24.6C113.311 25.0107 114.216 25.58 114.963 26.308C115.709 27.036 116.279 27.8853 116.671 28.856C117.081 29.8267 117.287 30.872 117.287 31.992V32.664C117.287 33.7467 117.091 34.764 116.699 35.716C116.325 36.668 115.765 37.508 115.019 38.236C114.291 38.964 113.395 39.5333 112.331 39.944C111.267 40.3547 110.053 40.56 108.691 40.56ZM108.691 36.304C109.475 36.304 110.119 36.136 110.623 35.8C111.145 35.464 111.537 34.9973 111.799 34.4C112.06 33.784 112.191 33.0933 112.191 32.328C112.191 31.5253 112.051 30.8253 111.771 30.228C111.509 29.612 111.117 29.1267 110.595 28.772C110.072 28.4173 109.437 28.24 108.691 28.24C107.944 28.24 107.309 28.4173 106.787 28.772C106.264 29.1267 105.863 29.612 105.583 30.228C105.321 30.8253 105.191 31.5253 105.191 32.328C105.191 33.0933 105.321 33.784 105.583 34.4C105.844 34.9973 106.236 35.464 106.759 35.8C107.281 36.136 107.925 36.304 108.691 36.304ZM120.301 40V19.56H127.525L131.725 30.34H132.285L136.457 19.56H143.821V40H138.669V22.556L139.481 22.612L134.217 35.884H129.485L124.193 22.612L125.061 22.556V40H120.301ZM157.1 40V35.464H156.26V30.62C156.26 29.9107 156.092 29.388 155.756 29.052C155.439 28.6973 154.907 28.52 154.16 28.52C153.806 28.52 153.283 28.5293 152.592 28.548C151.902 28.5667 151.174 28.5947 150.408 28.632C149.643 28.6693 148.943 28.7067 148.308 28.744V24.488C148.756 24.4507 149.288 24.4133 149.904 24.376C150.52 24.3387 151.155 24.3107 151.808 24.292C152.48 24.2733 153.096 24.264 153.656 24.264C155.243 24.264 156.587 24.4973 157.688 24.964C158.808 25.4307 159.658 26.1307 160.236 27.064C160.834 27.9973 161.132 29.1827 161.132 30.62V40H157.1ZM152.2 40.392C151.118 40.392 150.156 40.196 149.316 39.804C148.476 39.412 147.814 38.852 147.328 38.124C146.862 37.3773 146.628 36.4907 146.628 35.464C146.628 34.3067 146.936 33.3733 147.552 32.664C148.168 31.936 149.018 31.404 150.1 31.068C151.183 30.732 152.424 30.564 153.824 30.564H156.82V33.196H153.824C153.134 33.196 152.602 33.3733 152.228 33.728C151.855 34.064 151.668 34.5213 151.668 35.1C151.668 35.66 151.855 36.1173 152.228 36.472C152.602 36.808 153.134 36.976 153.824 36.976C154.272 36.976 154.664 36.9013 155 36.752C155.355 36.584 155.644 36.304 155.868 35.912C156.092 35.52 156.223 34.9787 156.26 34.288L157.436 35.408C157.343 36.472 157.082 37.3773 156.652 38.124C156.242 38.852 155.663 39.412 154.916 39.804C154.188 40.196 153.283 40.392 152.2 40.392ZM170.725 46.188C169.96 46.188 169.167 46.16 168.345 46.104C167.543 46.048 166.815 45.9733 166.161 45.88V41.624C166.815 41.6987 167.543 41.764 168.345 41.82C169.148 41.8947 169.885 41.932 170.557 41.932C171.715 41.932 172.657 41.8107 173.385 41.568C174.132 41.3253 174.683 40.952 175.037 40.448C175.392 39.944 175.569 39.3 175.569 38.516V35.38L176.353 33.7C176.316 35.0067 176.064 36.1453 175.597 37.116C175.131 38.068 174.459 38.8053 173.581 39.328C172.723 39.8507 171.677 40.112 170.445 40.112C169.4 40.112 168.457 39.9253 167.617 39.552C166.777 39.1787 166.059 38.656 165.461 37.984C164.883 37.2933 164.435 36.4813 164.117 35.548C163.8 34.6147 163.641 33.5973 163.641 32.496V31.824C163.641 30.7227 163.809 29.7053 164.145 28.772C164.481 27.82 164.967 26.9987 165.601 26.308C166.236 25.5987 166.983 25.0573 167.841 24.684C168.719 24.292 169.689 24.096 170.753 24.096C171.985 24.096 173.049 24.376 173.945 24.936C174.841 25.4773 175.541 26.2707 176.045 27.316C176.549 28.3613 176.82 29.6307 176.857 31.124L176.297 31.32V24.544H180.329V38.18C180.329 40.084 179.975 41.624 179.265 42.8C178.556 43.976 177.483 44.8347 176.045 45.376C174.627 45.9173 172.853 46.188 170.725 46.188ZM172.153 35.912C172.769 35.912 173.32 35.772 173.805 35.492C174.309 35.212 174.711 34.8107 175.009 34.288C175.308 33.7467 175.457 33.1027 175.457 32.356V31.684C175.457 30.956 175.299 30.34 174.981 29.836C174.683 29.332 174.281 28.9493 173.777 28.688C173.273 28.4267 172.732 28.296 172.153 28.296C171.481 28.296 170.884 28.4547 170.361 28.772C169.857 29.0893 169.456 29.5373 169.157 30.116C168.877 30.6947 168.737 31.376 168.737 32.16C168.737 32.944 168.877 33.616 169.157 34.176C169.456 34.736 169.857 35.1653 170.361 35.464C170.884 35.7627 171.481 35.912 172.153 35.912ZM184.597 40V24.544H189.693V40H184.597ZM182.637 28.24V24.544H189.693V28.24H182.637ZM186.697 23.312C185.764 23.312 185.073 23.0787 184.625 22.612C184.196 22.1267 183.981 21.5107 183.981 20.764C183.981 20.0173 184.196 19.4107 184.625 18.944C185.073 18.4587 185.755 18.216 186.669 18.216C187.603 18.216 188.284 18.4587 188.713 18.944C189.143 19.4107 189.357 20.0173 189.357 20.764C189.357 21.5107 189.143 22.1267 188.713 22.612C188.284 23.0787 187.612 23.312 186.697 23.312ZM200.496 40.56C199.152 40.56 197.985 40.3453 196.996 39.916C196.006 39.468 195.176 38.8707 194.504 38.124C193.85 37.3773 193.356 36.528 193.02 35.576C192.702 34.624 192.544 33.6347 192.544 32.608V32.048C192.544 30.9653 192.712 29.9387 193.048 28.968C193.402 27.9973 193.916 27.1387 194.588 26.392C195.26 25.6453 196.09 25.0573 197.08 24.628C198.069 24.1987 199.208 23.984 200.496 23.984C201.914 23.984 203.165 24.264 204.248 24.824C205.33 25.384 206.189 26.1587 206.824 27.148C207.477 28.1187 207.841 29.2387 207.916 30.508H202.932C202.876 29.892 202.642 29.3693 202.232 28.94C201.84 28.5107 201.261 28.296 200.496 28.296C199.842 28.296 199.301 28.464 198.872 28.8C198.461 29.136 198.153 29.6027 197.948 30.2C197.742 30.7973 197.64 31.5067 197.64 32.328C197.64 33.0933 197.724 33.7747 197.892 34.372C198.078 34.9693 198.377 35.436 198.788 35.772C199.217 36.0893 199.786 36.248 200.496 36.248C201.018 36.248 201.457 36.1547 201.812 35.968C202.166 35.7813 202.446 35.52 202.652 35.184C202.857 34.8293 202.988 34.4187 203.044 33.952H208.028C207.953 35.2587 207.58 36.4067 206.908 37.396C206.254 38.3853 205.377 39.16 204.276 39.72C203.174 40.28 201.914 40.56 200.496 40.56Z" fill="white"/>
<defs>
<filter id="filter0_ii_26_5010" x="0.659149" y="5.65918" width="46.6817" height="48.6816" filterUnits="userSpaceOnUse" color-interpolation-filters="sRGB">
<feFlood flood-opacity="0" result="BackgroundImageFix"/>
<feBlend mode="normal" in="SourceGraphic" in2="BackgroundImageFix" result="shape"/>
<feColorMatrix in="SourceAlpha" type="matrix" values="0 0 0 0 0 0 0 0 0 0 0 0 0 0 0 0 0 0 127 0" result="hardAlpha"/>
<feOffset dy="-1"/>
<feGaussianBlur stdDeviation="1"/>
<feComposite in2="hardAlpha" operator="arithmetic" k2="-1" k3="1"/>
<feColorMatrix type="matrix" values="0 0 0 0 0 0 0 0 0 0 0 0 0 0 0 0 0 0 0.41 0"/>
<feBlend mode="multiply" in2="shape" result="effect1_innerShadow_26_5010"/>
<feColorMatrix in="SourceAlpha" type="matrix" values="0 0 0 0 0 0 0 0 0 0 0 0 0 0 0 0 0 0 127 0" result="hardAlpha"/>
<feOffset dy="1"/>
<feGaussianBlur stdDeviation="0.5"/>
<feComposite in2="hardAlpha" operator="arithmetic" k2="-1" k3="1"/>
<feColorMatrix type="matrix" values="0 0 0 0 1 0 0 0 0 1 0 0 0 0 1 0 0 0 1 0"/>
<feBlend mode="normal" in2="effect1_innerShadow_26_5010" result="effect2_innerShadow_26_5010"/>
</filter>
<linearGradient id="paint0_linear_26_5010" x1="2" y1="0" x2="2" y2="8" gradientUnits="userSpaceOnUse">
<stop stop-color="#1A1D1F" stop-opacity="0.75"/>
<stop offset="1" stop-color="#1A1D1F"/>
</linearGradient>
<linearGradient id="paint1_linear_26_5010" x1="2" y1="0" x2="2" y2="8" gradientUnits="userSpaceOnUse">
<stop stop-color="#1A1D1F" stop-opacity="0.75"/>
<stop offset="1" stop-color="#1A1D1F"/>
</linearGradient>
<clipPath id="clip0_26_5010">
<rect width="48" height="48" fill="white" transform="translate(0 6)"/>
</clipPath>
</defs>
</svg>
